<mxfile host="app.diagrams.net" modified="2023-10-28T15:56:35.804Z" agent="Mozilla/5.0 (Windows NT 10.0; Win64; x64) AppleWebKit/537.36 (KHTML, like Gecko) Chrome/118.0.0.0 Safari/537.36" etag="kpGcXtMXVt_XkI0Ubhhl" version="22.0.8" type="device">
  <diagram name="Trang-1" id="5xWiZfgB9yBgnBRPBaU_">
    <mxGraphModel dx="1909" dy="1029" grid="1" gridSize="10" guides="1" tooltips="1" connect="1" arrows="1" fold="1" page="1" pageScale="1" pageWidth="3300" pageHeight="4681" math="0" shadow="0">
      <root>
        <mxCell id="0" />
        <mxCell id="1" parent="0" />
        <mxCell id="gEZM68ZGpH-NV6sg8_g6-146" value="" style="endArrow=none;html=1;rounded=0;exitX=1;exitY=0.5;exitDx=0;exitDy=0;entryX=0;entryY=0.5;entryDx=0;entryDy=0;" parent="1" source="d7ThoQ3NYxS6xshXu1oU-4" target="gEZM68ZGpH-NV6sg8_g6-125" edge="1">
          <mxGeometry relative="1" as="geometry">
            <mxPoint x="1590" y="541.666666666667" as="sourcePoint" />
            <mxPoint x="1100" y="361.66666666666697" as="targetPoint" />
          </mxGeometry>
        </mxCell>
        <mxCell id="gEZM68ZGpH-NV6sg8_g6-147" value="1" style="resizable=0;html=1;whiteSpace=wrap;align=right;verticalAlign=bottom;" parent="gEZM68ZGpH-NV6sg8_g6-146" connectable="0" vertex="1">
          <mxGeometry x="1" relative="1" as="geometry">
            <mxPoint x="-210" as="offset" />
          </mxGeometry>
        </mxCell>
        <mxCell id="d7ThoQ3NYxS6xshXu1oU-1" value="Categories" style="rounded=0;whiteSpace=wrap;html=1;" parent="1" vertex="1">
          <mxGeometry x="710" y="880" width="120" height="60" as="geometry" />
        </mxCell>
        <mxCell id="d7ThoQ3NYxS6xshXu1oU-3" value="Product" style="rounded=0;whiteSpace=wrap;html=1;" parent="1" vertex="1">
          <mxGeometry x="1300" y="1110" width="120" height="60" as="geometry" />
        </mxCell>
        <mxCell id="d7ThoQ3NYxS6xshXu1oU-4" value="User" style="rounded=0;whiteSpace=wrap;html=1;" parent="1" vertex="1">
          <mxGeometry x="1300" y="520" width="120" height="60" as="geometry" />
        </mxCell>
        <mxCell id="d7ThoQ3NYxS6xshXu1oU-13" value="" style="endArrow=none;html=1;rounded=0;exitX=0.5;exitY=0;exitDx=0;exitDy=0;entryX=0.5;entryY=1;entryDx=0;entryDy=0;" parent="1" source="d7ThoQ3NYxS6xshXu1oU-1" target="d7ThoQ3NYxS6xshXu1oU-14" edge="1">
          <mxGeometry width="50" height="50" relative="1" as="geometry">
            <mxPoint x="620" y="900" as="sourcePoint" />
            <mxPoint x="620" y="810" as="targetPoint" />
          </mxGeometry>
        </mxCell>
        <mxCell id="d7ThoQ3NYxS6xshXu1oU-14" value="ID" style="ellipse;whiteSpace=wrap;html=1;" parent="1" vertex="1">
          <mxGeometry x="640" y="750" width="80" height="40" as="geometry" />
        </mxCell>
        <mxCell id="d7ThoQ3NYxS6xshXu1oU-15" value="" style="endArrow=none;html=1;rounded=0;entryX=0.25;entryY=0;entryDx=0;entryDy=0;exitX=1;exitY=0.5;exitDx=0;exitDy=0;" parent="1" source="d7ThoQ3NYxS6xshXu1oU-16" target="d7ThoQ3NYxS6xshXu1oU-1" edge="1">
          <mxGeometry width="50" height="50" relative="1" as="geometry">
            <mxPoint x="610" y="860" as="sourcePoint" />
            <mxPoint x="890" y="1020" as="targetPoint" />
          </mxGeometry>
        </mxCell>
        <mxCell id="d7ThoQ3NYxS6xshXu1oU-16" value="Name" style="ellipse;whiteSpace=wrap;html=1;" parent="1" vertex="1">
          <mxGeometry x="540" y="770" width="80" height="40" as="geometry" />
        </mxCell>
        <mxCell id="d7ThoQ3NYxS6xshXu1oU-17" value="" style="endArrow=none;html=1;rounded=0;entryX=0;entryY=0;entryDx=0;entryDy=0;exitX=1;exitY=0.5;exitDx=0;exitDy=0;" parent="1" source="d7ThoQ3NYxS6xshXu1oU-18" target="d7ThoQ3NYxS6xshXu1oU-1" edge="1">
          <mxGeometry width="50" height="50" relative="1" as="geometry">
            <mxPoint x="610" y="920" as="sourcePoint" />
            <mxPoint x="1060" y="1150" as="targetPoint" />
          </mxGeometry>
        </mxCell>
        <mxCell id="d7ThoQ3NYxS6xshXu1oU-18" value="Describe" style="ellipse;whiteSpace=wrap;html=1;" parent="1" vertex="1">
          <mxGeometry x="510" y="820" width="80" height="40" as="geometry" />
        </mxCell>
        <mxCell id="d7ThoQ3NYxS6xshXu1oU-19" value="" style="endArrow=none;html=1;rounded=0;entryX=1;entryY=0;entryDx=0;entryDy=0;exitX=0.5;exitY=1;exitDx=0;exitDy=0;" parent="1" source="d7ThoQ3NYxS6xshXu1oU-20" target="d7ThoQ3NYxS6xshXu1oU-1" edge="1">
          <mxGeometry width="50" height="50" relative="1" as="geometry">
            <mxPoint x="459.7053752834372" y="1016.6060584659504" as="sourcePoint" />
            <mxPoint x="1060" y="1150" as="targetPoint" />
          </mxGeometry>
        </mxCell>
        <mxCell id="d7ThoQ3NYxS6xshXu1oU-20" value="Image" style="ellipse;whiteSpace=wrap;html=1;" parent="1" vertex="1">
          <mxGeometry x="820" y="770" width="80" height="40" as="geometry" />
        </mxCell>
        <mxCell id="d7ThoQ3NYxS6xshXu1oU-21" value="" style="endArrow=none;html=1;rounded=0;exitX=0.75;exitY=0;exitDx=0;exitDy=0;" parent="1" source="d7ThoQ3NYxS6xshXu1oU-1" target="d7ThoQ3NYxS6xshXu1oU-22" edge="1">
          <mxGeometry width="50" height="50" relative="1" as="geometry">
            <mxPoint x="770" y="840" as="sourcePoint" />
            <mxPoint x="760" y="800" as="targetPoint" />
          </mxGeometry>
        </mxCell>
        <mxCell id="d7ThoQ3NYxS6xshXu1oU-22" value="Status" style="ellipse;whiteSpace=wrap;html=1;" parent="1" vertex="1">
          <mxGeometry x="730" y="760" width="80" height="40" as="geometry" />
        </mxCell>
        <mxCell id="d7ThoQ3NYxS6xshXu1oU-23" value="" style="endArrow=none;html=1;rounded=0;exitX=0.75;exitY=0;exitDx=0;exitDy=0;entryX=0.5;entryY=1;entryDx=0;entryDy=0;" parent="1" source="d7ThoQ3NYxS6xshXu1oU-3" target="d7ThoQ3NYxS6xshXu1oU-24" edge="1">
          <mxGeometry width="50" height="50" relative="1" as="geometry">
            <mxPoint x="990" y="1650" as="sourcePoint" />
            <mxPoint x="1113.9801487608393" y="1249.9007438041963" as="targetPoint" />
          </mxGeometry>
        </mxCell>
        <mxCell id="d7ThoQ3NYxS6xshXu1oU-24" value="ID" style="ellipse;whiteSpace=wrap;html=1;" parent="1" vertex="1">
          <mxGeometry x="1410" y="970" width="80" height="40" as="geometry" />
        </mxCell>
        <mxCell id="d7ThoQ3NYxS6xshXu1oU-25" value="" style="endArrow=none;html=1;rounded=0;entryX=1;entryY=0;entryDx=0;entryDy=0;exitX=0;exitY=0.5;exitDx=0;exitDy=0;" parent="1" source="d7ThoQ3NYxS6xshXu1oU-26" target="d7ThoQ3NYxS6xshXu1oU-3" edge="1">
          <mxGeometry width="50" height="50" relative="1" as="geometry">
            <mxPoint x="1100" y="1300" as="sourcePoint" />
            <mxPoint x="1040" y="1600" as="targetPoint" />
          </mxGeometry>
        </mxCell>
        <mxCell id="d7ThoQ3NYxS6xshXu1oU-26" value="Name" style="ellipse;whiteSpace=wrap;html=1;" parent="1" vertex="1">
          <mxGeometry x="1500" y="990" width="80" height="40" as="geometry" />
        </mxCell>
        <mxCell id="d7ThoQ3NYxS6xshXu1oU-29" style="edgeStyle=orthogonalEdgeStyle;rounded=0;orthogonalLoop=1;jettySize=auto;html=1;exitX=0.5;exitY=1;exitDx=0;exitDy=0;" parent="1" source="d7ThoQ3NYxS6xshXu1oU-26" target="d7ThoQ3NYxS6xshXu1oU-26" edge="1">
          <mxGeometry relative="1" as="geometry" />
        </mxCell>
        <mxCell id="d7ThoQ3NYxS6xshXu1oU-30" value="" style="endArrow=none;html=1;rounded=0;exitX=1;exitY=0.25;exitDx=0;exitDy=0;" parent="1" source="d7ThoQ3NYxS6xshXu1oU-3" target="d7ThoQ3NYxS6xshXu1oU-31" edge="1">
          <mxGeometry width="50" height="50" relative="1" as="geometry">
            <mxPoint x="990" y="1650" as="sourcePoint" />
            <mxPoint x="1140" y="1325" as="targetPoint" />
          </mxGeometry>
        </mxCell>
        <mxCell id="d7ThoQ3NYxS6xshXu1oU-31" value="Describe" style="ellipse;whiteSpace=wrap;html=1;" parent="1" vertex="1">
          <mxGeometry x="1500" y="1040" width="80" height="40" as="geometry" />
        </mxCell>
        <mxCell id="d7ThoQ3NYxS6xshXu1oU-32" value="" style="endArrow=none;html=1;rounded=0;exitX=0;exitY=0.5;exitDx=0;exitDy=0;entryX=1;entryY=0.75;entryDx=0;entryDy=0;" parent="1" source="d7ThoQ3NYxS6xshXu1oU-33" target="d7ThoQ3NYxS6xshXu1oU-3" edge="1">
          <mxGeometry width="50" height="50" relative="1" as="geometry">
            <mxPoint x="1090" y="1360" as="sourcePoint" />
            <mxPoint x="1470" y="1130" as="targetPoint" />
          </mxGeometry>
        </mxCell>
        <mxCell id="d7ThoQ3NYxS6xshXu1oU-33" value="Price" style="ellipse;whiteSpace=wrap;html=1;" parent="1" vertex="1">
          <mxGeometry x="1480" y="1160" width="80" height="40" as="geometry" />
        </mxCell>
        <mxCell id="d7ThoQ3NYxS6xshXu1oU-35" value="" style="endArrow=none;html=1;rounded=0;entryX=1;entryY=1;entryDx=0;entryDy=0;exitX=0;exitY=0.5;exitDx=0;exitDy=0;" parent="1" source="d7ThoQ3NYxS6xshXu1oU-36" target="d7ThoQ3NYxS6xshXu1oU-3" edge="1">
          <mxGeometry width="50" height="50" relative="1" as="geometry">
            <mxPoint x="1110" y="1380" as="sourcePoint" />
            <mxPoint x="1040" y="1600" as="targetPoint" />
          </mxGeometry>
        </mxCell>
        <mxCell id="d7ThoQ3NYxS6xshXu1oU-36" value="Quantity" style="ellipse;whiteSpace=wrap;html=1;" parent="1" vertex="1">
          <mxGeometry x="1480" y="1210" width="80" height="40" as="geometry" />
        </mxCell>
        <mxCell id="d7ThoQ3NYxS6xshXu1oU-37" value="" style="endArrow=none;html=1;rounded=0;entryX=0.833;entryY=1;entryDx=0;entryDy=0;exitX=0;exitY=0;exitDx=0;exitDy=0;entryPerimeter=0;" parent="1" source="d7ThoQ3NYxS6xshXu1oU-38" target="d7ThoQ3NYxS6xshXu1oU-3" edge="1">
          <mxGeometry width="50" height="50" relative="1" as="geometry">
            <mxPoint x="1110" y="1440" as="sourcePoint" />
            <mxPoint x="1040" y="1600" as="targetPoint" />
          </mxGeometry>
        </mxCell>
        <mxCell id="d7ThoQ3NYxS6xshXu1oU-38" value="Discount" style="ellipse;whiteSpace=wrap;html=1;" parent="1" vertex="1">
          <mxGeometry x="1480" y="1260" width="80" height="40" as="geometry" />
        </mxCell>
        <mxCell id="d7ThoQ3NYxS6xshXu1oU-39" value="" style="endArrow=none;html=1;rounded=0;entryX=0;entryY=0;entryDx=0;entryDy=0;exitX=0;exitY=0;exitDx=0;exitDy=0;" parent="1" source="d7ThoQ3NYxS6xshXu1oU-40" target="d7ThoQ3NYxS6xshXu1oU-3" edge="1">
          <mxGeometry width="50" height="50" relative="1" as="geometry">
            <mxPoint x="1240" y="1460" as="sourcePoint" />
            <mxPoint x="1040" y="1600" as="targetPoint" />
          </mxGeometry>
        </mxCell>
        <mxCell id="d7ThoQ3NYxS6xshXu1oU-40" value="Sold" style="ellipse;whiteSpace=wrap;html=1;" parent="1" vertex="1">
          <mxGeometry x="1130" y="1000" width="80" height="40" as="geometry" />
        </mxCell>
        <mxCell id="d7ThoQ3NYxS6xshXu1oU-41" value="" style="endArrow=none;html=1;rounded=0;entryX=0.25;entryY=0;entryDx=0;entryDy=0;exitX=0.5;exitY=0;exitDx=0;exitDy=0;" parent="1" source="d7ThoQ3NYxS6xshXu1oU-42" target="d7ThoQ3NYxS6xshXu1oU-3" edge="1">
          <mxGeometry width="50" height="50" relative="1" as="geometry">
            <mxPoint x="1220" y="1490" as="sourcePoint" />
            <mxPoint x="1040" y="1600" as="targetPoint" />
          </mxGeometry>
        </mxCell>
        <mxCell id="d7ThoQ3NYxS6xshXu1oU-42" value="Status" style="ellipse;whiteSpace=wrap;html=1;" parent="1" vertex="1">
          <mxGeometry x="1230" y="990" width="80" height="40" as="geometry" />
        </mxCell>
        <mxCell id="d7ThoQ3NYxS6xshXu1oU-43" value="" style="endArrow=none;html=1;rounded=0;entryX=0;entryY=0;entryDx=0;entryDy=0;exitX=1;exitY=1;exitDx=0;exitDy=0;" parent="1" source="d7ThoQ3NYxS6xshXu1oU-45" target="d7ThoQ3NYxS6xshXu1oU-4" edge="1">
          <mxGeometry width="50" height="50" relative="1" as="geometry">
            <mxPoint x="1280" y="450" as="sourcePoint" />
            <mxPoint x="1770" y="340" as="targetPoint" />
          </mxGeometry>
        </mxCell>
        <mxCell id="d7ThoQ3NYxS6xshXu1oU-45" value="UserID" style="ellipse;whiteSpace=wrap;html=1;" parent="1" vertex="1">
          <mxGeometry x="1140" y="430" width="80" height="40" as="geometry" />
        </mxCell>
        <mxCell id="d7ThoQ3NYxS6xshXu1oU-46" value="" style="endArrow=none;html=1;rounded=0;entryX=0;entryY=0.75;entryDx=0;entryDy=0;exitX=1;exitY=0;exitDx=0;exitDy=0;" parent="1" source="d7ThoQ3NYxS6xshXu1oU-47" target="d7ThoQ3NYxS6xshXu1oU-4" edge="1">
          <mxGeometry width="50" height="50" relative="1" as="geometry">
            <mxPoint x="1298" y="606" as="sourcePoint" />
            <mxPoint x="1770" y="340" as="targetPoint" />
          </mxGeometry>
        </mxCell>
        <mxCell id="d7ThoQ3NYxS6xshXu1oU-47" value="UserName" style="ellipse;whiteSpace=wrap;html=1;" parent="1" vertex="1">
          <mxGeometry x="1140" y="620" width="80" height="40" as="geometry" />
        </mxCell>
        <mxCell id="d7ThoQ3NYxS6xshXu1oU-48" value="" style="endArrow=none;html=1;rounded=0;entryX=0;entryY=1;entryDx=0;entryDy=0;exitX=1;exitY=0;exitDx=0;exitDy=0;" parent="1" source="d7ThoQ3NYxS6xshXu1oU-49" target="d7ThoQ3NYxS6xshXu1oU-4" edge="1">
          <mxGeometry width="50" height="50" relative="1" as="geometry">
            <mxPoint x="1370" y="620" as="sourcePoint" />
            <mxPoint x="1770" y="340" as="targetPoint" />
          </mxGeometry>
        </mxCell>
        <mxCell id="d7ThoQ3NYxS6xshXu1oU-49" value="First Name" style="ellipse;whiteSpace=wrap;html=1;" parent="1" vertex="1">
          <mxGeometry x="1200" y="650" width="80" height="40" as="geometry" />
        </mxCell>
        <mxCell id="d7ThoQ3NYxS6xshXu1oU-50" value="" style="endArrow=none;html=1;rounded=0;entryX=0.25;entryY=1;entryDx=0;entryDy=0;exitX=0.5;exitY=0;exitDx=0;exitDy=0;" parent="1" source="d7ThoQ3NYxS6xshXu1oU-51" target="d7ThoQ3NYxS6xshXu1oU-4" edge="1">
          <mxGeometry width="50" height="50" relative="1" as="geometry">
            <mxPoint x="1430" y="650" as="sourcePoint" />
            <mxPoint x="1520" y="600" as="targetPoint" />
          </mxGeometry>
        </mxCell>
        <mxCell id="d7ThoQ3NYxS6xshXu1oU-51" value="Last Name" style="ellipse;whiteSpace=wrap;html=1;" parent="1" vertex="1">
          <mxGeometry x="1270" y="681" width="80" height="40" as="geometry" />
        </mxCell>
        <mxCell id="d7ThoQ3NYxS6xshXu1oU-53" value="" style="endArrow=none;html=1;rounded=0;entryX=0.75;entryY=1;entryDx=0;entryDy=0;exitX=0.5;exitY=0;exitDx=0;exitDy=0;" parent="1" source="d7ThoQ3NYxS6xshXu1oU-54" target="d7ThoQ3NYxS6xshXu1oU-4" edge="1">
          <mxGeometry width="50" height="50" relative="1" as="geometry">
            <mxPoint x="1620" y="680" as="sourcePoint" />
            <mxPoint x="1670" y="630" as="targetPoint" />
          </mxGeometry>
        </mxCell>
        <mxCell id="d7ThoQ3NYxS6xshXu1oU-54" value="Email" style="ellipse;whiteSpace=wrap;html=1;" parent="1" vertex="1">
          <mxGeometry x="1380" y="670" width="80" height="40" as="geometry" />
        </mxCell>
        <mxCell id="d7ThoQ3NYxS6xshXu1oU-55" value="" style="endArrow=none;html=1;rounded=0;entryX=1;entryY=1;entryDx=0;entryDy=0;" parent="1" source="d7ThoQ3NYxS6xshXu1oU-56" target="d7ThoQ3NYxS6xshXu1oU-4" edge="1">
          <mxGeometry width="50" height="50" relative="1" as="geometry">
            <mxPoint x="1630" y="600" as="sourcePoint" />
            <mxPoint x="1660" y="550" as="targetPoint" />
          </mxGeometry>
        </mxCell>
        <mxCell id="d7ThoQ3NYxS6xshXu1oU-56" value="Password" style="ellipse;whiteSpace=wrap;html=1;" parent="1" vertex="1">
          <mxGeometry x="1550" y="620" width="80" height="40" as="geometry" />
        </mxCell>
        <mxCell id="d7ThoQ3NYxS6xshXu1oU-57" value="" style="endArrow=none;html=1;rounded=0;exitX=1;exitY=0;exitDx=0;exitDy=0;entryX=0;entryY=0.5;entryDx=0;entryDy=0;" parent="1" source="d7ThoQ3NYxS6xshXu1oU-4" target="d7ThoQ3NYxS6xshXu1oU-58" edge="1">
          <mxGeometry width="50" height="50" relative="1" as="geometry">
            <mxPoint x="1580" y="540" as="sourcePoint" />
            <mxPoint x="1640" y="550" as="targetPoint" />
          </mxGeometry>
        </mxCell>
        <mxCell id="d7ThoQ3NYxS6xshXu1oU-58" value="Address" style="ellipse;whiteSpace=wrap;html=1;" parent="1" vertex="1">
          <mxGeometry x="1580" y="450" width="80" height="40" as="geometry" />
        </mxCell>
        <mxCell id="d7ThoQ3NYxS6xshXu1oU-59" value="" style="endArrow=none;html=1;rounded=0;exitX=1;exitY=0;exitDx=0;exitDy=0;entryX=0;entryY=0.5;entryDx=0;entryDy=0;" parent="1" source="d7ThoQ3NYxS6xshXu1oU-4" target="d7ThoQ3NYxS6xshXu1oU-60" edge="1">
          <mxGeometry width="50" height="50" relative="1" as="geometry">
            <mxPoint x="1590" y="500" as="sourcePoint" />
            <mxPoint x="1650" y="490" as="targetPoint" />
          </mxGeometry>
        </mxCell>
        <mxCell id="d7ThoQ3NYxS6xshXu1oU-60" value="City" style="ellipse;whiteSpace=wrap;html=1;" parent="1" vertex="1">
          <mxGeometry x="1510" y="420" width="80" height="40" as="geometry" />
        </mxCell>
        <mxCell id="d7ThoQ3NYxS6xshXu1oU-61" value="" style="endArrow=none;html=1;rounded=0;exitX=1;exitY=0;exitDx=0;exitDy=0;entryX=0.5;entryY=1;entryDx=0;entryDy=0;" parent="1" source="d7ThoQ3NYxS6xshXu1oU-4" target="d7ThoQ3NYxS6xshXu1oU-62" edge="1">
          <mxGeometry width="50" height="50" relative="1" as="geometry">
            <mxPoint x="1510" y="500" as="sourcePoint" />
            <mxPoint x="1560" y="450" as="targetPoint" />
          </mxGeometry>
        </mxCell>
        <mxCell id="d7ThoQ3NYxS6xshXu1oU-62" value="Country" style="ellipse;whiteSpace=wrap;html=1;" parent="1" vertex="1">
          <mxGeometry x="1500" y="350" width="80" height="40" as="geometry" />
        </mxCell>
        <mxCell id="d7ThoQ3NYxS6xshXu1oU-63" value="" style="endArrow=none;html=1;rounded=0;exitX=0.75;exitY=0;exitDx=0;exitDy=0;entryX=0.5;entryY=1;entryDx=0;entryDy=0;" parent="1" source="d7ThoQ3NYxS6xshXu1oU-4" target="d7ThoQ3NYxS6xshXu1oU-64" edge="1">
          <mxGeometry width="50" height="50" relative="1" as="geometry">
            <mxPoint x="2030" y="490" as="sourcePoint" />
            <mxPoint x="1480" y="470" as="targetPoint" />
          </mxGeometry>
        </mxCell>
        <mxCell id="d7ThoQ3NYxS6xshXu1oU-64" value="Phone" style="ellipse;whiteSpace=wrap;html=1;" parent="1" vertex="1">
          <mxGeometry x="1430" y="390" width="80" height="40" as="geometry" />
        </mxCell>
        <mxCell id="d7ThoQ3NYxS6xshXu1oU-65" value="" style="endArrow=none;html=1;rounded=0;exitX=0.25;exitY=0;exitDx=0;exitDy=0;entryX=0.5;entryY=1;entryDx=0;entryDy=0;" parent="1" source="d7ThoQ3NYxS6xshXu1oU-4" target="d7ThoQ3NYxS6xshXu1oU-66" edge="1">
          <mxGeometry width="50" height="50" relative="1" as="geometry">
            <mxPoint x="2030" y="480" as="sourcePoint" />
            <mxPoint x="1350" y="470" as="targetPoint" />
          </mxGeometry>
        </mxCell>
        <mxCell id="d7ThoQ3NYxS6xshXu1oU-66" value="Role" style="ellipse;whiteSpace=wrap;html=1;" parent="1" vertex="1">
          <mxGeometry x="1240" y="410" width="80" height="40" as="geometry" />
        </mxCell>
        <mxCell id="d7ThoQ3NYxS6xshXu1oU-67" value="" style="endArrow=none;html=1;rounded=0;exitX=0.75;exitY=1;exitDx=0;exitDy=0;entryX=0;entryY=0.5;entryDx=0;entryDy=0;" parent="1" source="d7ThoQ3NYxS6xshXu1oU-4" target="d7ThoQ3NYxS6xshXu1oU-68" edge="1">
          <mxGeometry width="50" height="50" relative="1" as="geometry">
            <mxPoint x="1940" y="490" as="sourcePoint" />
            <mxPoint x="1630" y="680" as="targetPoint" />
          </mxGeometry>
        </mxCell>
        <mxCell id="d7ThoQ3NYxS6xshXu1oU-68" value="Status" style="ellipse;whiteSpace=wrap;html=1;" parent="1" vertex="1">
          <mxGeometry x="1470" y="641" width="80" height="40" as="geometry" />
        </mxCell>
        <mxCell id="d7ThoQ3NYxS6xshXu1oU-73" value="Coupon" style="rounded=0;whiteSpace=wrap;html=1;" parent="1" vertex="1">
          <mxGeometry x="2470" y="520" width="120" height="60" as="geometry" />
        </mxCell>
        <mxCell id="d7ThoQ3NYxS6xshXu1oU-75" value="" style="endArrow=none;html=1;rounded=0;entryX=1;entryY=0;entryDx=0;entryDy=0;exitX=0;exitY=0.5;exitDx=0;exitDy=0;" parent="1" source="d7ThoQ3NYxS6xshXu1oU-76" target="d7ThoQ3NYxS6xshXu1oU-73" edge="1">
          <mxGeometry width="50" height="50" relative="1" as="geometry">
            <mxPoint x="2410" y="70" as="sourcePoint" />
            <mxPoint x="2350" y="370" as="targetPoint" />
          </mxGeometry>
        </mxCell>
        <mxCell id="d7ThoQ3NYxS6xshXu1oU-76" value="ID" style="ellipse;whiteSpace=wrap;html=1;" parent="1" vertex="1">
          <mxGeometry x="2640" y="400" width="80" height="40" as="geometry" />
        </mxCell>
        <mxCell id="d7ThoQ3NYxS6xshXu1oU-77" style="edgeStyle=orthogonalEdgeStyle;rounded=0;orthogonalLoop=1;jettySize=auto;html=1;exitX=0.5;exitY=1;exitDx=0;exitDy=0;" parent="1" source="d7ThoQ3NYxS6xshXu1oU-76" target="d7ThoQ3NYxS6xshXu1oU-76" edge="1">
          <mxGeometry relative="1" as="geometry" />
        </mxCell>
        <mxCell id="d7ThoQ3NYxS6xshXu1oU-78" value="" style="endArrow=none;html=1;rounded=0;exitX=1;exitY=0.25;exitDx=0;exitDy=0;" parent="1" source="d7ThoQ3NYxS6xshXu1oU-73" target="d7ThoQ3NYxS6xshXu1oU-79" edge="1">
          <mxGeometry width="50" height="50" relative="1" as="geometry">
            <mxPoint x="2300" y="420" as="sourcePoint" />
            <mxPoint x="2450" y="95" as="targetPoint" />
          </mxGeometry>
        </mxCell>
        <mxCell id="d7ThoQ3NYxS6xshXu1oU-79" value="Code" style="ellipse;whiteSpace=wrap;html=1;" parent="1" vertex="1">
          <mxGeometry x="2730" y="430" width="80" height="40" as="geometry" />
        </mxCell>
        <mxCell id="d7ThoQ3NYxS6xshXu1oU-80" value="" style="endArrow=none;html=1;rounded=0;entryX=1;entryY=0.5;entryDx=0;entryDy=0;exitX=0;exitY=0.5;exitDx=0;exitDy=0;" parent="1" source="d7ThoQ3NYxS6xshXu1oU-81" target="d7ThoQ3NYxS6xshXu1oU-73" edge="1">
          <mxGeometry width="50" height="50" relative="1" as="geometry">
            <mxPoint x="2400" y="130" as="sourcePoint" />
            <mxPoint x="2350" y="370" as="targetPoint" />
          </mxGeometry>
        </mxCell>
        <mxCell id="d7ThoQ3NYxS6xshXu1oU-81" value="Type" style="ellipse;whiteSpace=wrap;html=1;" parent="1" vertex="1">
          <mxGeometry x="2750" y="480" width="80" height="40" as="geometry" />
        </mxCell>
        <mxCell id="d7ThoQ3NYxS6xshXu1oU-82" value="" style="endArrow=none;html=1;rounded=0;entryX=1;entryY=0.75;entryDx=0;entryDy=0;exitX=0;exitY=0.5;exitDx=0;exitDy=0;" parent="1" source="d7ThoQ3NYxS6xshXu1oU-83" target="d7ThoQ3NYxS6xshXu1oU-73" edge="1">
          <mxGeometry width="50" height="50" relative="1" as="geometry">
            <mxPoint x="2420" y="150" as="sourcePoint" />
            <mxPoint x="2350" y="370" as="targetPoint" />
          </mxGeometry>
        </mxCell>
        <mxCell id="d7ThoQ3NYxS6xshXu1oU-83" value="Value" style="ellipse;whiteSpace=wrap;html=1;" parent="1" vertex="1">
          <mxGeometry x="2800" y="530" width="80" height="40" as="geometry" />
        </mxCell>
        <mxCell id="d7ThoQ3NYxS6xshXu1oU-84" value="" style="endArrow=none;html=1;rounded=0;entryX=1;entryY=1;entryDx=0;entryDy=0;exitX=0;exitY=0;exitDx=0;exitDy=0;" parent="1" source="d7ThoQ3NYxS6xshXu1oU-85" target="d7ThoQ3NYxS6xshXu1oU-73" edge="1">
          <mxGeometry width="50" height="50" relative="1" as="geometry">
            <mxPoint x="2420" y="210" as="sourcePoint" />
            <mxPoint x="2350" y="370" as="targetPoint" />
          </mxGeometry>
        </mxCell>
        <mxCell id="d7ThoQ3NYxS6xshXu1oU-85" value="Expire" style="ellipse;whiteSpace=wrap;html=1;" parent="1" vertex="1">
          <mxGeometry x="2780" y="590" width="80" height="40" as="geometry" />
        </mxCell>
        <mxCell id="d7ThoQ3NYxS6xshXu1oU-86" value="" style="endArrow=none;html=1;rounded=0;entryX=0.852;entryY=0.998;entryDx=0;entryDy=0;entryPerimeter=0;exitX=0;exitY=0;exitDx=0;exitDy=0;" parent="1" source="d7ThoQ3NYxS6xshXu1oU-87" target="d7ThoQ3NYxS6xshXu1oU-73" edge="1">
          <mxGeometry width="50" height="50" relative="1" as="geometry">
            <mxPoint x="2550" y="230" as="sourcePoint" />
            <mxPoint x="2350" y="370" as="targetPoint" />
          </mxGeometry>
        </mxCell>
        <mxCell id="d7ThoQ3NYxS6xshXu1oU-87" value="Manufacture" style="ellipse;whiteSpace=wrap;html=1;" parent="1" vertex="1">
          <mxGeometry x="2740" y="640" width="80" height="40" as="geometry" />
        </mxCell>
        <mxCell id="d7ThoQ3NYxS6xshXu1oU-88" value="" style="endArrow=none;html=1;rounded=0;entryX=0.75;entryY=1;entryDx=0;entryDy=0;exitX=0;exitY=0;exitDx=0;exitDy=0;" parent="1" source="d7ThoQ3NYxS6xshXu1oU-89" target="d7ThoQ3NYxS6xshXu1oU-73" edge="1">
          <mxGeometry width="50" height="50" relative="1" as="geometry">
            <mxPoint x="2530" y="260" as="sourcePoint" />
            <mxPoint x="2350" y="370" as="targetPoint" />
          </mxGeometry>
        </mxCell>
        <mxCell id="d7ThoQ3NYxS6xshXu1oU-89" value="Status" style="ellipse;whiteSpace=wrap;html=1;" parent="1" vertex="1">
          <mxGeometry x="2680" y="700" width="80" height="40" as="geometry" />
        </mxCell>
        <mxCell id="d7ThoQ3NYxS6xshXu1oU-95" value="Cart" style="rounded=0;whiteSpace=wrap;html=1;" parent="1" vertex="1">
          <mxGeometry x="1910" y="1110" width="120" height="60" as="geometry" />
        </mxCell>
        <mxCell id="d7ThoQ3NYxS6xshXu1oU-96" value="" style="endArrow=none;html=1;rounded=0;exitX=1;exitY=0;exitDx=0;exitDy=0;entryX=0;entryY=0.5;entryDx=0;entryDy=0;" parent="1" source="d7ThoQ3NYxS6xshXu1oU-95" target="d7ThoQ3NYxS6xshXu1oU-97" edge="1">
          <mxGeometry width="50" height="50" relative="1" as="geometry">
            <mxPoint x="2260" y="900" as="sourcePoint" />
            <mxPoint x="2260" y="810" as="targetPoint" />
          </mxGeometry>
        </mxCell>
        <mxCell id="d7ThoQ3NYxS6xshXu1oU-97" value="ID" style="ellipse;whiteSpace=wrap;html=1;" parent="1" vertex="1">
          <mxGeometry x="2070" y="1050" width="80" height="40" as="geometry" />
        </mxCell>
        <mxCell id="d7ThoQ3NYxS6xshXu1oU-102" value="" style="endArrow=none;html=1;rounded=0;entryX=0.75;entryY=0;entryDx=0;entryDy=0;" parent="1" source="d7ThoQ3NYxS6xshXu1oU-103" target="d7ThoQ3NYxS6xshXu1oU-95" edge="1">
          <mxGeometry width="50" height="50" relative="1" as="geometry">
            <mxPoint x="2270" y="970" as="sourcePoint" />
            <mxPoint x="2700" y="1150" as="targetPoint" />
          </mxGeometry>
        </mxCell>
        <mxCell id="d7ThoQ3NYxS6xshXu1oU-103" value="Customer ID" style="ellipse;whiteSpace=wrap;html=1;" parent="1" vertex="1">
          <mxGeometry x="2000" y="1020" width="80" height="40" as="geometry" />
        </mxCell>
        <mxCell id="d7ThoQ3NYxS6xshXu1oU-106" value="Cart Item" style="rounded=0;whiteSpace=wrap;html=1;" parent="1" vertex="1">
          <mxGeometry x="2607.5" y="1110" width="120" height="60" as="geometry" />
        </mxCell>
        <mxCell id="d7ThoQ3NYxS6xshXu1oU-107" value="" style="endArrow=none;html=1;rounded=0;exitX=1;exitY=0;exitDx=0;exitDy=0;entryX=0;entryY=0.5;entryDx=0;entryDy=0;" parent="1" source="d7ThoQ3NYxS6xshXu1oU-106" target="d7ThoQ3NYxS6xshXu1oU-108" edge="1">
          <mxGeometry width="50" height="50" relative="1" as="geometry">
            <mxPoint x="2482.5" y="1160" as="sourcePoint" />
            <mxPoint x="2482.5" y="1070" as="targetPoint" />
          </mxGeometry>
        </mxCell>
        <mxCell id="d7ThoQ3NYxS6xshXu1oU-108" value="ID" style="ellipse;whiteSpace=wrap;html=1;" parent="1" vertex="1">
          <mxGeometry x="2810" y="1050" width="80" height="40" as="geometry" />
        </mxCell>
        <mxCell id="d7ThoQ3NYxS6xshXu1oU-109" value="" style="endArrow=none;html=1;rounded=0;entryX=1;entryY=0.25;entryDx=0;entryDy=0;exitX=1;exitY=0.5;exitDx=0;exitDy=0;" parent="1" source="d7ThoQ3NYxS6xshXu1oU-110" target="d7ThoQ3NYxS6xshXu1oU-106" edge="1">
          <mxGeometry width="50" height="50" relative="1" as="geometry">
            <mxPoint x="2472.5" y="1120" as="sourcePoint" />
            <mxPoint x="2752.5" y="1280" as="targetPoint" />
          </mxGeometry>
        </mxCell>
        <mxCell id="d7ThoQ3NYxS6xshXu1oU-110" value="Product ID" style="ellipse;whiteSpace=wrap;html=1;" parent="1" vertex="1">
          <mxGeometry x="2810" y="1100" width="80" height="40" as="geometry" />
        </mxCell>
        <mxCell id="d7ThoQ3NYxS6xshXu1oU-111" value="" style="endArrow=none;html=1;rounded=0;entryX=1;entryY=0.75;entryDx=0;entryDy=0;exitX=1;exitY=0.5;exitDx=0;exitDy=0;" parent="1" source="d7ThoQ3NYxS6xshXu1oU-112" target="d7ThoQ3NYxS6xshXu1oU-106" edge="1">
          <mxGeometry width="50" height="50" relative="1" as="geometry">
            <mxPoint x="2472.5" y="1180" as="sourcePoint" />
            <mxPoint x="2922.5" y="1410" as="targetPoint" />
          </mxGeometry>
        </mxCell>
        <mxCell id="d7ThoQ3NYxS6xshXu1oU-112" value="Quantity" style="ellipse;whiteSpace=wrap;html=1;" parent="1" vertex="1">
          <mxGeometry x="2820" y="1150" width="80" height="40" as="geometry" />
        </mxCell>
        <mxCell id="d7ThoQ3NYxS6xshXu1oU-113" value="" style="endArrow=none;html=1;rounded=0;entryX=1;entryY=1;entryDx=0;entryDy=0;exitX=0;exitY=0;exitDx=0;exitDy=0;" parent="1" source="d7ThoQ3NYxS6xshXu1oU-114" target="d7ThoQ3NYxS6xshXu1oU-106" edge="1">
          <mxGeometry width="50" height="50" relative="1" as="geometry">
            <mxPoint x="2492.5" y="1230" as="sourcePoint" />
            <mxPoint x="2922.5" y="1410" as="targetPoint" />
          </mxGeometry>
        </mxCell>
        <mxCell id="d7ThoQ3NYxS6xshXu1oU-114" value="Price" style="ellipse;whiteSpace=wrap;html=1;" parent="1" vertex="1">
          <mxGeometry x="2810" y="1200" width="80" height="40" as="geometry" />
        </mxCell>
        <mxCell id="d7ThoQ3NYxS6xshXu1oU-115" value="" style="endArrow=none;html=1;rounded=0;exitX=0.75;exitY=0;exitDx=0;exitDy=0;entryX=0;entryY=1;entryDx=0;entryDy=0;" parent="1" source="d7ThoQ3NYxS6xshXu1oU-106" target="d7ThoQ3NYxS6xshXu1oU-116" edge="1">
          <mxGeometry width="50" height="50" relative="1" as="geometry">
            <mxPoint x="2632.5" y="1100" as="sourcePoint" />
            <mxPoint x="2622.5" y="1060" as="targetPoint" />
          </mxGeometry>
        </mxCell>
        <mxCell id="d7ThoQ3NYxS6xshXu1oU-116" value="Cart ID" style="ellipse;whiteSpace=wrap;html=1;" parent="1" vertex="1">
          <mxGeometry x="2760" y="1010" width="80" height="40" as="geometry" />
        </mxCell>
        <mxCell id="d7ThoQ3NYxS6xshXu1oU-118" value="Order" style="rounded=0;whiteSpace=wrap;html=1;" parent="1" vertex="1">
          <mxGeometry x="1900" y="520" width="120" height="60" as="geometry" />
        </mxCell>
        <mxCell id="d7ThoQ3NYxS6xshXu1oU-119" value="" style="endArrow=none;html=1;rounded=0;exitX=1;exitY=0.25;exitDx=0;exitDy=0;entryX=0;entryY=1;entryDx=0;entryDy=0;" parent="1" source="d7ThoQ3NYxS6xshXu1oU-118" target="d7ThoQ3NYxS6xshXu1oU-120" edge="1">
          <mxGeometry width="50" height="50" relative="1" as="geometry">
            <mxPoint x="1800" y="540" as="sourcePoint" />
            <mxPoint x="1800" y="450" as="targetPoint" />
          </mxGeometry>
        </mxCell>
        <mxCell id="d7ThoQ3NYxS6xshXu1oU-120" value="ID" style="ellipse;whiteSpace=wrap;html=1;" parent="1" vertex="1">
          <mxGeometry x="2080" y="410" width="80" height="40" as="geometry" />
        </mxCell>
        <mxCell id="d7ThoQ3NYxS6xshXu1oU-121" value="" style="endArrow=none;html=1;rounded=0;exitX=0;exitY=0.5;exitDx=0;exitDy=0;entryX=1;entryY=0.25;entryDx=0;entryDy=0;" parent="1" source="d7ThoQ3NYxS6xshXu1oU-122" target="d7ThoQ3NYxS6xshXu1oU-118" edge="1">
          <mxGeometry width="50" height="50" relative="1" as="geometry">
            <mxPoint x="1790" y="500" as="sourcePoint" />
            <mxPoint x="2020" y="540" as="targetPoint" />
          </mxGeometry>
        </mxCell>
        <mxCell id="d7ThoQ3NYxS6xshXu1oU-122" value="Staff ID" style="ellipse;whiteSpace=wrap;html=1;" parent="1" vertex="1">
          <mxGeometry x="2090" y="470" width="80" height="40" as="geometry" />
        </mxCell>
        <mxCell id="d7ThoQ3NYxS6xshXu1oU-123" value="" style="endArrow=none;html=1;rounded=0;entryX=1;entryY=0.75;entryDx=0;entryDy=0;exitX=0;exitY=0.5;exitDx=0;exitDy=0;" parent="1" source="d7ThoQ3NYxS6xshXu1oU-124" target="d7ThoQ3NYxS6xshXu1oU-118" edge="1">
          <mxGeometry width="50" height="50" relative="1" as="geometry">
            <mxPoint x="1790" y="560" as="sourcePoint" />
            <mxPoint x="2240" y="790" as="targetPoint" />
          </mxGeometry>
        </mxCell>
        <mxCell id="d7ThoQ3NYxS6xshXu1oU-124" value="Status" style="ellipse;whiteSpace=wrap;html=1;" parent="1" vertex="1">
          <mxGeometry x="2100" y="601" width="80" height="40" as="geometry" />
        </mxCell>
        <mxCell id="d7ThoQ3NYxS6xshXu1oU-125" value="" style="endArrow=none;html=1;rounded=0;entryX=1;entryY=1;entryDx=0;entryDy=0;" parent="1" source="d7ThoQ3NYxS6xshXu1oU-126" target="d7ThoQ3NYxS6xshXu1oU-118" edge="1">
          <mxGeometry width="50" height="50" relative="1" as="geometry">
            <mxPoint x="1810" y="610" as="sourcePoint" />
            <mxPoint x="2240" y="790" as="targetPoint" />
          </mxGeometry>
        </mxCell>
        <mxCell id="d7ThoQ3NYxS6xshXu1oU-126" value="Fee" style="ellipse;whiteSpace=wrap;html=1;" parent="1" vertex="1">
          <mxGeometry x="2070" y="650" width="80" height="40" as="geometry" />
        </mxCell>
        <mxCell id="d7ThoQ3NYxS6xshXu1oU-127" value="" style="endArrow=none;html=1;rounded=0;exitX=1;exitY=0;exitDx=0;exitDy=0;" parent="1" source="d7ThoQ3NYxS6xshXu1oU-118" target="d7ThoQ3NYxS6xshXu1oU-128" edge="1">
          <mxGeometry width="50" height="50" relative="1" as="geometry">
            <mxPoint x="1950" y="480" as="sourcePoint" />
            <mxPoint x="1940" y="440" as="targetPoint" />
          </mxGeometry>
        </mxCell>
        <mxCell id="d7ThoQ3NYxS6xshXu1oU-128" value="Customer ID" style="ellipse;whiteSpace=wrap;html=1;" parent="1" vertex="1">
          <mxGeometry x="2050" y="350" width="80" height="40" as="geometry" />
        </mxCell>
        <mxCell id="d7ThoQ3NYxS6xshXu1oU-129" value="" style="endArrow=none;html=1;rounded=0;entryX=0.75;entryY=0;entryDx=0;entryDy=0;exitX=0.5;exitY=1;exitDx=0;exitDy=0;" parent="1" source="d7ThoQ3NYxS6xshXu1oU-130" target="d7ThoQ3NYxS6xshXu1oU-118" edge="1">
          <mxGeometry width="50" height="50" relative="1" as="geometry">
            <mxPoint x="1900" y="630" as="sourcePoint" />
            <mxPoint x="2050" y="750" as="targetPoint" />
          </mxGeometry>
        </mxCell>
        <mxCell id="d7ThoQ3NYxS6xshXu1oU-130" value="Total" style="ellipse;whiteSpace=wrap;html=1;" parent="1" vertex="1">
          <mxGeometry x="1980" y="320" width="90" height="40" as="geometry" />
        </mxCell>
        <mxCell id="d7ThoQ3NYxS6xshXu1oU-131" value="" style="endArrow=none;html=1;rounded=0;entryX=0.5;entryY=0;entryDx=0;entryDy=0;exitX=0.5;exitY=0;exitDx=0;exitDy=0;" parent="1" source="d7ThoQ3NYxS6xshXu1oU-132" target="d7ThoQ3NYxS6xshXu1oU-118" edge="1">
          <mxGeometry width="50" height="50" relative="1" as="geometry">
            <mxPoint x="1940" y="620" as="sourcePoint" />
            <mxPoint x="2070" y="650" as="targetPoint" />
          </mxGeometry>
        </mxCell>
        <mxCell id="d7ThoQ3NYxS6xshXu1oU-132" value="Coupon ID" style="ellipse;whiteSpace=wrap;html=1;" parent="1" vertex="1">
          <mxGeometry x="1930" y="360" width="80" height="40" as="geometry" />
        </mxCell>
        <mxCell id="gEZM68ZGpH-NV6sg8_g6-42" value="Order Item" style="rounded=0;whiteSpace=wrap;html=1;" parent="1" vertex="1">
          <mxGeometry x="1900" y="800" width="120" height="60" as="geometry" />
        </mxCell>
        <mxCell id="gEZM68ZGpH-NV6sg8_g6-43" value="" style="endArrow=none;html=1;rounded=0;exitX=1;exitY=0;exitDx=0;exitDy=0;entryX=0;entryY=0.5;entryDx=0;entryDy=0;" parent="1" source="gEZM68ZGpH-NV6sg8_g6-42" target="gEZM68ZGpH-NV6sg8_g6-44" edge="1">
          <mxGeometry width="50" height="50" relative="1" as="geometry">
            <mxPoint x="1875" y="850" as="sourcePoint" />
            <mxPoint x="1875" y="760" as="targetPoint" />
          </mxGeometry>
        </mxCell>
        <mxCell id="gEZM68ZGpH-NV6sg8_g6-44" value="ID" style="ellipse;whiteSpace=wrap;html=1;" parent="1" vertex="1">
          <mxGeometry x="2180" y="720" width="80" height="40" as="geometry" />
        </mxCell>
        <mxCell id="gEZM68ZGpH-NV6sg8_g6-45" value="" style="endArrow=none;html=1;rounded=0;entryX=1;entryY=0.25;entryDx=0;entryDy=0;exitX=0;exitY=0.5;exitDx=0;exitDy=0;" parent="1" source="gEZM68ZGpH-NV6sg8_g6-46" target="gEZM68ZGpH-NV6sg8_g6-42" edge="1">
          <mxGeometry width="50" height="50" relative="1" as="geometry">
            <mxPoint x="1865" y="810" as="sourcePoint" />
            <mxPoint x="2145" y="970" as="targetPoint" />
          </mxGeometry>
        </mxCell>
        <mxCell id="gEZM68ZGpH-NV6sg8_g6-46" value="Product ID" style="ellipse;whiteSpace=wrap;html=1;" parent="1" vertex="1">
          <mxGeometry x="2180" y="770" width="80" height="40" as="geometry" />
        </mxCell>
        <mxCell id="gEZM68ZGpH-NV6sg8_g6-47" value="" style="endArrow=none;html=1;rounded=0;entryX=1;entryY=0.5;entryDx=0;entryDy=0;exitX=0;exitY=0.5;exitDx=0;exitDy=0;" parent="1" source="gEZM68ZGpH-NV6sg8_g6-48" target="gEZM68ZGpH-NV6sg8_g6-42" edge="1">
          <mxGeometry width="50" height="50" relative="1" as="geometry">
            <mxPoint x="1865" y="870" as="sourcePoint" />
            <mxPoint x="2315" y="1100" as="targetPoint" />
          </mxGeometry>
        </mxCell>
        <mxCell id="gEZM68ZGpH-NV6sg8_g6-48" value="Quantity" style="ellipse;whiteSpace=wrap;html=1;" parent="1" vertex="1">
          <mxGeometry x="2180" y="820" width="80" height="40" as="geometry" />
        </mxCell>
        <mxCell id="gEZM68ZGpH-NV6sg8_g6-49" value="" style="endArrow=none;html=1;rounded=0;entryX=1;entryY=0.75;entryDx=0;entryDy=0;" parent="1" source="gEZM68ZGpH-NV6sg8_g6-50" target="gEZM68ZGpH-NV6sg8_g6-42" edge="1">
          <mxGeometry width="50" height="50" relative="1" as="geometry">
            <mxPoint x="1885" y="920" as="sourcePoint" />
            <mxPoint x="2315" y="1100" as="targetPoint" />
          </mxGeometry>
        </mxCell>
        <mxCell id="gEZM68ZGpH-NV6sg8_g6-50" value="Price" style="ellipse;whiteSpace=wrap;html=1;" parent="1" vertex="1">
          <mxGeometry x="2180" y="870" width="80" height="40" as="geometry" />
        </mxCell>
        <mxCell id="gEZM68ZGpH-NV6sg8_g6-51" value="" style="endArrow=none;html=1;rounded=0;exitX=1;exitY=0;exitDx=0;exitDy=0;" parent="1" source="gEZM68ZGpH-NV6sg8_g6-42" target="gEZM68ZGpH-NV6sg8_g6-52" edge="1">
          <mxGeometry width="50" height="50" relative="1" as="geometry">
            <mxPoint x="2025" y="790" as="sourcePoint" />
            <mxPoint x="2015" y="750" as="targetPoint" />
          </mxGeometry>
        </mxCell>
        <mxCell id="gEZM68ZGpH-NV6sg8_g6-52" value="Order ID" style="ellipse;whiteSpace=wrap;html=1;" parent="1" vertex="1">
          <mxGeometry x="2150" y="670" width="80" height="40" as="geometry" />
        </mxCell>
        <mxCell id="gEZM68ZGpH-NV6sg8_g6-53" value="" style="endArrow=none;html=1;rounded=0;entryX=1;entryY=1;entryDx=0;entryDy=0;exitX=0;exitY=0;exitDx=0;exitDy=0;" parent="1" source="gEZM68ZGpH-NV6sg8_g6-54" target="gEZM68ZGpH-NV6sg8_g6-42" edge="1">
          <mxGeometry width="50" height="50" relative="1" as="geometry">
            <mxPoint x="1935" y="970" as="sourcePoint" />
            <mxPoint x="1985" y="920" as="targetPoint" />
          </mxGeometry>
        </mxCell>
        <mxCell id="gEZM68ZGpH-NV6sg8_g6-54" value="Name" style="ellipse;whiteSpace=wrap;html=1;" parent="1" vertex="1">
          <mxGeometry x="2180" y="920" width="80" height="40" as="geometry" />
        </mxCell>
        <mxCell id="gEZM68ZGpH-NV6sg8_g6-55" value="Review" style="rounded=0;whiteSpace=wrap;html=1;" parent="1" vertex="1">
          <mxGeometry x="785" y="520" width="120" height="60" as="geometry" />
        </mxCell>
        <mxCell id="gEZM68ZGpH-NV6sg8_g6-56" value="" style="endArrow=none;html=1;rounded=0;exitX=0;exitY=0;exitDx=0;exitDy=0;" parent="1" source="gEZM68ZGpH-NV6sg8_g6-55" edge="1">
          <mxGeometry width="50" height="50" relative="1" as="geometry">
            <mxPoint x="685" y="530" as="sourcePoint" />
            <mxPoint x="685" y="440" as="targetPoint" />
          </mxGeometry>
        </mxCell>
        <mxCell id="gEZM68ZGpH-NV6sg8_g6-57" value="ID" style="ellipse;whiteSpace=wrap;html=1;" parent="1" vertex="1">
          <mxGeometry x="615" y="410" width="80" height="40" as="geometry" />
        </mxCell>
        <mxCell id="gEZM68ZGpH-NV6sg8_g6-58" value="" style="endArrow=none;html=1;rounded=0;entryX=0;entryY=0.25;entryDx=0;entryDy=0;" parent="1" target="gEZM68ZGpH-NV6sg8_g6-55" edge="1">
          <mxGeometry width="50" height="50" relative="1" as="geometry">
            <mxPoint x="675" y="490" as="sourcePoint" />
            <mxPoint x="955" y="650" as="targetPoint" />
          </mxGeometry>
        </mxCell>
        <mxCell id="gEZM68ZGpH-NV6sg8_g6-59" value="Customer ID" style="ellipse;whiteSpace=wrap;html=1;" parent="1" vertex="1">
          <mxGeometry x="615" y="470" width="80" height="40" as="geometry" />
        </mxCell>
        <mxCell id="gEZM68ZGpH-NV6sg8_g6-60" value="" style="endArrow=none;html=1;rounded=0;entryX=0;entryY=0.5;entryDx=0;entryDy=0;" parent="1" target="gEZM68ZGpH-NV6sg8_g6-55" edge="1">
          <mxGeometry width="50" height="50" relative="1" as="geometry">
            <mxPoint x="675" y="550" as="sourcePoint" />
            <mxPoint x="1125" y="780" as="targetPoint" />
          </mxGeometry>
        </mxCell>
        <mxCell id="gEZM68ZGpH-NV6sg8_g6-61" value="Rating" style="ellipse;whiteSpace=wrap;html=1;" parent="1" vertex="1">
          <mxGeometry x="615" y="530" width="80" height="40" as="geometry" />
        </mxCell>
        <mxCell id="gEZM68ZGpH-NV6sg8_g6-62" value="" style="endArrow=none;html=1;rounded=0;entryX=0;entryY=0.75;entryDx=0;entryDy=0;" parent="1" source="gEZM68ZGpH-NV6sg8_g6-63" target="gEZM68ZGpH-NV6sg8_g6-55" edge="1">
          <mxGeometry width="50" height="50" relative="1" as="geometry">
            <mxPoint x="695" y="600" as="sourcePoint" />
            <mxPoint x="1125" y="780" as="targetPoint" />
          </mxGeometry>
        </mxCell>
        <mxCell id="gEZM68ZGpH-NV6sg8_g6-63" value="Title" style="ellipse;whiteSpace=wrap;html=1;" parent="1" vertex="1">
          <mxGeometry x="615" y="590" width="80" height="40" as="geometry" />
        </mxCell>
        <mxCell id="gEZM68ZGpH-NV6sg8_g6-64" value="" style="endArrow=none;html=1;rounded=0;exitX=0.25;exitY=0;exitDx=0;exitDy=0;" parent="1" source="gEZM68ZGpH-NV6sg8_g6-55" target="gEZM68ZGpH-NV6sg8_g6-65" edge="1">
          <mxGeometry width="50" height="50" relative="1" as="geometry">
            <mxPoint x="835" y="470" as="sourcePoint" />
            <mxPoint x="825" y="430" as="targetPoint" />
          </mxGeometry>
        </mxCell>
        <mxCell id="gEZM68ZGpH-NV6sg8_g6-65" value="Product ID" style="ellipse;whiteSpace=wrap;html=1;" parent="1" vertex="1">
          <mxGeometry x="755" y="410" width="80" height="40" as="geometry" />
        </mxCell>
        <mxCell id="gEZM68ZGpH-NV6sg8_g6-66" value="" style="endArrow=none;html=1;rounded=0;entryX=0;entryY=1;entryDx=0;entryDy=0;exitX=1;exitY=0;exitDx=0;exitDy=0;" parent="1" source="gEZM68ZGpH-NV6sg8_g6-67" target="gEZM68ZGpH-NV6sg8_g6-55" edge="1">
          <mxGeometry width="50" height="50" relative="1" as="geometry">
            <mxPoint x="745" y="650" as="sourcePoint" />
            <mxPoint x="795" y="600" as="targetPoint" />
          </mxGeometry>
        </mxCell>
        <mxCell id="gEZM68ZGpH-NV6sg8_g6-67" value="Content" style="ellipse;whiteSpace=wrap;html=1;" parent="1" vertex="1">
          <mxGeometry x="615" y="660" width="80" height="40" as="geometry" />
        </mxCell>
        <mxCell id="gEZM68ZGpH-NV6sg8_g6-68" value="Assests" style="rounded=0;whiteSpace=wrap;html=1;" parent="1" vertex="1">
          <mxGeometry x="1630" y="1470" width="120" height="60" as="geometry" />
        </mxCell>
        <mxCell id="gEZM68ZGpH-NV6sg8_g6-69" value="" style="endArrow=none;html=1;rounded=0;exitX=1;exitY=0.25;exitDx=0;exitDy=0;entryX=0;entryY=0.5;entryDx=0;entryDy=0;" parent="1" source="gEZM68ZGpH-NV6sg8_g6-68" target="gEZM68ZGpH-NV6sg8_g6-70" edge="1">
          <mxGeometry width="50" height="50" relative="1" as="geometry">
            <mxPoint x="1510" y="1510" as="sourcePoint" />
            <mxPoint x="1510" y="1420" as="targetPoint" />
          </mxGeometry>
        </mxCell>
        <mxCell id="gEZM68ZGpH-NV6sg8_g6-70" value="ID" style="ellipse;whiteSpace=wrap;html=1;" parent="1" vertex="1">
          <mxGeometry x="1810" y="1440" width="80" height="40" as="geometry" />
        </mxCell>
        <mxCell id="gEZM68ZGpH-NV6sg8_g6-71" value="" style="endArrow=none;html=1;rounded=0;entryX=1;entryY=0.5;entryDx=0;entryDy=0;exitX=0;exitY=0.5;exitDx=0;exitDy=0;" parent="1" source="gEZM68ZGpH-NV6sg8_g6-72" target="gEZM68ZGpH-NV6sg8_g6-68" edge="1">
          <mxGeometry width="50" height="50" relative="1" as="geometry">
            <mxPoint x="1500" y="1470" as="sourcePoint" />
            <mxPoint x="1780" y="1630" as="targetPoint" />
          </mxGeometry>
        </mxCell>
        <mxCell id="gEZM68ZGpH-NV6sg8_g6-72" value="Path" style="ellipse;whiteSpace=wrap;html=1;" parent="1" vertex="1">
          <mxGeometry x="1820" y="1490" width="80" height="40" as="geometry" />
        </mxCell>
        <mxCell id="gEZM68ZGpH-NV6sg8_g6-73" value="" style="endArrow=none;html=1;rounded=0;entryX=1;entryY=0.75;entryDx=0;entryDy=0;exitX=0;exitY=0.5;exitDx=0;exitDy=0;" parent="1" source="gEZM68ZGpH-NV6sg8_g6-74" target="gEZM68ZGpH-NV6sg8_g6-68" edge="1">
          <mxGeometry width="50" height="50" relative="1" as="geometry">
            <mxPoint x="1500" y="1530" as="sourcePoint" />
            <mxPoint x="1950" y="1760" as="targetPoint" />
          </mxGeometry>
        </mxCell>
        <mxCell id="gEZM68ZGpH-NV6sg8_g6-74" value="Type" style="ellipse;whiteSpace=wrap;html=1;" parent="1" vertex="1">
          <mxGeometry x="1830" y="1550" width="80" height="40" as="geometry" />
        </mxCell>
        <mxCell id="gEZM68ZGpH-NV6sg8_g6-75" value="" style="endArrow=none;html=1;rounded=0;entryX=1;entryY=1;entryDx=0;entryDy=0;" parent="1" source="gEZM68ZGpH-NV6sg8_g6-76" target="gEZM68ZGpH-NV6sg8_g6-68" edge="1">
          <mxGeometry width="50" height="50" relative="1" as="geometry">
            <mxPoint x="1520" y="1580" as="sourcePoint" />
            <mxPoint x="1950" y="1760" as="targetPoint" />
          </mxGeometry>
        </mxCell>
        <mxCell id="gEZM68ZGpH-NV6sg8_g6-76" value="Size" style="ellipse;whiteSpace=wrap;html=1;" parent="1" vertex="1">
          <mxGeometry x="1750" y="1580" width="80" height="40" as="geometry" />
        </mxCell>
        <mxCell id="gEZM68ZGpH-NV6sg8_g6-77" value="" style="endArrow=none;html=1;rounded=0;exitX=1;exitY=0;exitDx=0;exitDy=0;" parent="1" source="gEZM68ZGpH-NV6sg8_g6-68" target="gEZM68ZGpH-NV6sg8_g6-78" edge="1">
          <mxGeometry width="50" height="50" relative="1" as="geometry">
            <mxPoint x="1660" y="1450" as="sourcePoint" />
            <mxPoint x="1650" y="1410" as="targetPoint" />
          </mxGeometry>
        </mxCell>
        <mxCell id="gEZM68ZGpH-NV6sg8_g6-78" value="FIle Name" style="ellipse;whiteSpace=wrap;html=1;" parent="1" vertex="1">
          <mxGeometry x="1770" y="1370" width="80" height="40" as="geometry" />
        </mxCell>
        <mxCell id="gEZM68ZGpH-NV6sg8_g6-79" value="Product Assets" style="rounded=0;whiteSpace=wrap;html=1;" parent="1" vertex="1">
          <mxGeometry x="660" y="1470" width="120" height="60" as="geometry" />
        </mxCell>
        <mxCell id="gEZM68ZGpH-NV6sg8_g6-82" value="" style="endArrow=none;html=1;rounded=0;entryX=0;entryY=0.25;entryDx=0;entryDy=0;" parent="1" target="gEZM68ZGpH-NV6sg8_g6-79" edge="1">
          <mxGeometry width="50" height="50" relative="1" as="geometry">
            <mxPoint x="519.5246587581869" y="1473.0741401256364" as="sourcePoint" />
            <mxPoint x="710" y="1630" as="targetPoint" />
          </mxGeometry>
        </mxCell>
        <mxCell id="gEZM68ZGpH-NV6sg8_g6-84" value="" style="endArrow=none;html=1;rounded=0;entryX=0;entryY=0.5;entryDx=0;entryDy=0;exitX=1;exitY=0;exitDx=0;exitDy=0;" parent="1" source="gEZM68ZGpH-NV6sg8_g6-83" target="gEZM68ZGpH-NV6sg8_g6-79" edge="1">
          <mxGeometry width="50" height="50" relative="1" as="geometry">
            <mxPoint x="517.9473319220297" y="1523.6754446796613" as="sourcePoint" />
            <mxPoint x="880" y="1760" as="targetPoint" />
          </mxGeometry>
        </mxCell>
        <mxCell id="gEZM68ZGpH-NV6sg8_g6-88" value="" style="endArrow=none;html=1;rounded=0;exitX=0.25;exitY=0;exitDx=0;exitDy=0;" parent="1" source="gEZM68ZGpH-NV6sg8_g6-79" target="gEZM68ZGpH-NV6sg8_g6-89" edge="1">
          <mxGeometry width="50" height="50" relative="1" as="geometry">
            <mxPoint x="590" y="1450" as="sourcePoint" />
            <mxPoint x="580" y="1410" as="targetPoint" />
          </mxGeometry>
        </mxCell>
        <mxCell id="gEZM68ZGpH-NV6sg8_g6-89" value="Asset ID" style="ellipse;whiteSpace=wrap;html=1;" parent="1" vertex="1">
          <mxGeometry x="580" y="1390" width="80" height="40" as="geometry" />
        </mxCell>
        <mxCell id="gEZM68ZGpH-NV6sg8_g6-101" value="Attribute" style="rounded=0;whiteSpace=wrap;html=1;" parent="1" vertex="1">
          <mxGeometry x="1300" y="1730" width="120" height="60" as="geometry" />
        </mxCell>
        <mxCell id="gEZM68ZGpH-NV6sg8_g6-102" value="" style="endArrow=none;html=1;rounded=0;exitX=0.75;exitY=1;exitDx=0;exitDy=0;entryX=0.5;entryY=0;entryDx=0;entryDy=0;" parent="1" source="gEZM68ZGpH-NV6sg8_g6-101" target="gEZM68ZGpH-NV6sg8_g6-103" edge="1">
          <mxGeometry width="50" height="50" relative="1" as="geometry">
            <mxPoint x="1190" y="1770" as="sourcePoint" />
            <mxPoint x="1190" y="1680" as="targetPoint" />
          </mxGeometry>
        </mxCell>
        <mxCell id="gEZM68ZGpH-NV6sg8_g6-103" value="ID" style="ellipse;whiteSpace=wrap;html=1;" parent="1" vertex="1">
          <mxGeometry x="1400" y="1840" width="80" height="40" as="geometry" />
        </mxCell>
        <mxCell id="gEZM68ZGpH-NV6sg8_g6-104" value="" style="endArrow=none;html=1;rounded=0;entryX=0.5;entryY=1;entryDx=0;entryDy=0;exitX=0.5;exitY=0;exitDx=0;exitDy=0;" parent="1" source="gEZM68ZGpH-NV6sg8_g6-105" target="gEZM68ZGpH-NV6sg8_g6-101" edge="1">
          <mxGeometry width="50" height="50" relative="1" as="geometry">
            <mxPoint x="1180" y="1730" as="sourcePoint" />
            <mxPoint x="1460" y="1890" as="targetPoint" />
          </mxGeometry>
        </mxCell>
        <mxCell id="gEZM68ZGpH-NV6sg8_g6-105" value="Name" style="ellipse;whiteSpace=wrap;html=1;" parent="1" vertex="1">
          <mxGeometry x="1320" y="1840" width="80" height="40" as="geometry" />
        </mxCell>
        <mxCell id="gEZM68ZGpH-NV6sg8_g6-106" value="" style="endArrow=none;html=1;rounded=0;entryX=0.25;entryY=1;entryDx=0;entryDy=0;exitX=1;exitY=0;exitDx=0;exitDy=0;" parent="1" source="gEZM68ZGpH-NV6sg8_g6-107" target="gEZM68ZGpH-NV6sg8_g6-101" edge="1">
          <mxGeometry width="50" height="50" relative="1" as="geometry">
            <mxPoint x="1190" y="1790" as="sourcePoint" />
            <mxPoint x="1630" y="2020" as="targetPoint" />
          </mxGeometry>
        </mxCell>
        <mxCell id="gEZM68ZGpH-NV6sg8_g6-107" value="Description" style="ellipse;whiteSpace=wrap;html=1;" parent="1" vertex="1">
          <mxGeometry x="1220" y="1840" width="80" height="40" as="geometry" />
        </mxCell>
        <mxCell id="gEZM68ZGpH-NV6sg8_g6-112" value="Product Asset Atrtibute" style="rounded=0;whiteSpace=wrap;html=1;" parent="1" vertex="1">
          <mxGeometry x="1300" y="1470" width="120" height="60" as="geometry" />
        </mxCell>
        <mxCell id="gEZM68ZGpH-NV6sg8_g6-113" value="" style="endArrow=none;html=1;rounded=0;exitX=0;exitY=0;exitDx=0;exitDy=0;" parent="1" source="gEZM68ZGpH-NV6sg8_g6-112" edge="1">
          <mxGeometry width="50" height="50" relative="1" as="geometry">
            <mxPoint x="1190" y="1510" as="sourcePoint" />
            <mxPoint x="1190" y="1420" as="targetPoint" />
          </mxGeometry>
        </mxCell>
        <mxCell id="gEZM68ZGpH-NV6sg8_g6-114" value="ID" style="ellipse;whiteSpace=wrap;html=1;" parent="1" vertex="1">
          <mxGeometry x="1120" y="1390" width="80" height="40" as="geometry" />
        </mxCell>
        <mxCell id="gEZM68ZGpH-NV6sg8_g6-115" value="" style="endArrow=none;html=1;rounded=0;entryX=0;entryY=0.25;entryDx=0;entryDy=0;" parent="1" target="gEZM68ZGpH-NV6sg8_g6-112" edge="1">
          <mxGeometry width="50" height="50" relative="1" as="geometry">
            <mxPoint x="1180" y="1470" as="sourcePoint" />
            <mxPoint x="1460" y="1630" as="targetPoint" />
          </mxGeometry>
        </mxCell>
        <mxCell id="gEZM68ZGpH-NV6sg8_g6-116" value="Product ID" style="ellipse;whiteSpace=wrap;html=1;" parent="1" vertex="1">
          <mxGeometry x="1120" y="1450" width="80" height="40" as="geometry" />
        </mxCell>
        <mxCell id="gEZM68ZGpH-NV6sg8_g6-117" value="" style="endArrow=none;html=1;rounded=0;entryX=0;entryY=0.75;entryDx=0;entryDy=0;" parent="1" target="gEZM68ZGpH-NV6sg8_g6-112" edge="1">
          <mxGeometry width="50" height="50" relative="1" as="geometry">
            <mxPoint x="1180" y="1530" as="sourcePoint" />
            <mxPoint x="1630" y="1760" as="targetPoint" />
          </mxGeometry>
        </mxCell>
        <mxCell id="gEZM68ZGpH-NV6sg8_g6-118" value="Attribute ID" style="ellipse;whiteSpace=wrap;html=1;" parent="1" vertex="1">
          <mxGeometry x="1120" y="1510" width="80" height="40" as="geometry" />
        </mxCell>
        <mxCell id="gEZM68ZGpH-NV6sg8_g6-119" value="" style="endArrow=none;html=1;rounded=0;entryX=0;entryY=1;entryDx=0;entryDy=0;" parent="1" source="gEZM68ZGpH-NV6sg8_g6-120" target="gEZM68ZGpH-NV6sg8_g6-112" edge="1">
          <mxGeometry width="50" height="50" relative="1" as="geometry">
            <mxPoint x="1200" y="1580" as="sourcePoint" />
            <mxPoint x="1630" y="1760" as="targetPoint" />
          </mxGeometry>
        </mxCell>
        <mxCell id="gEZM68ZGpH-NV6sg8_g6-120" value="Value" style="ellipse;whiteSpace=wrap;html=1;" parent="1" vertex="1">
          <mxGeometry x="1120" y="1570" width="80" height="40" as="geometry" />
        </mxCell>
        <mxCell id="gEZM68ZGpH-NV6sg8_g6-121" value="" style="endArrow=none;html=1;rounded=0;exitX=0.25;exitY=0;exitDx=0;exitDy=0;" parent="1" source="gEZM68ZGpH-NV6sg8_g6-112" target="gEZM68ZGpH-NV6sg8_g6-122" edge="1">
          <mxGeometry width="50" height="50" relative="1" as="geometry">
            <mxPoint x="1340" y="1450" as="sourcePoint" />
            <mxPoint x="1330" y="1410" as="targetPoint" />
          </mxGeometry>
        </mxCell>
        <mxCell id="gEZM68ZGpH-NV6sg8_g6-122" value="Asset ID" style="ellipse;whiteSpace=wrap;html=1;" parent="1" vertex="1">
          <mxGeometry x="1190" y="1360" width="80" height="40" as="geometry" />
        </mxCell>
        <mxCell id="gEZM68ZGpH-NV6sg8_g6-123" value="Send" style="rhombus;whiteSpace=wrap;html=1;" parent="1" vertex="1">
          <mxGeometry x="1010" y="520" width="160" height="60" as="geometry" />
        </mxCell>
        <mxCell id="gEZM68ZGpH-NV6sg8_g6-124" value="Comment" style="rhombus;whiteSpace=wrap;html=1;" parent="1" vertex="1">
          <mxGeometry x="1280" y="870" width="160" height="70" as="geometry" />
        </mxCell>
        <mxCell id="gEZM68ZGpH-NV6sg8_g6-125" value="Have" style="rhombus;whiteSpace=wrap;html=1;" parent="1" vertex="1">
          <mxGeometry x="1640" y="515" width="160" height="70" as="geometry" />
        </mxCell>
        <mxCell id="gEZM68ZGpH-NV6sg8_g6-126" value="Have" style="rhombus;whiteSpace=wrap;html=1;" parent="1" vertex="1">
          <mxGeometry x="1880" y="660" width="160" height="70" as="geometry" />
        </mxCell>
        <mxCell id="gEZM68ZGpH-NV6sg8_g6-127" value="Include" style="rhombus;whiteSpace=wrap;html=1;" parent="1" vertex="1">
          <mxGeometry x="820" y="1110" width="160" height="70" as="geometry" />
        </mxCell>
        <mxCell id="gEZM68ZGpH-NV6sg8_g6-136" value="" style="endArrow=none;html=1;rounded=0;entryX=0;entryY=0.5;entryDx=0;entryDy=0;exitX=1;exitY=0.5;exitDx=0;exitDy=0;" parent="1" source="gEZM68ZGpH-NV6sg8_g6-127" target="d7ThoQ3NYxS6xshXu1oU-3" edge="1">
          <mxGeometry relative="1" as="geometry">
            <mxPoint x="890" y="1390" as="sourcePoint" />
            <mxPoint x="1050" y="1390" as="targetPoint" />
            <Array as="points" />
          </mxGeometry>
        </mxCell>
        <mxCell id="gEZM68ZGpH-NV6sg8_g6-137" value="N" style="resizable=0;html=1;whiteSpace=wrap;align=right;verticalAlign=bottom;" parent="gEZM68ZGpH-NV6sg8_g6-136" connectable="0" vertex="1">
          <mxGeometry x="1" relative="1" as="geometry" />
        </mxCell>
        <mxCell id="gEZM68ZGpH-NV6sg8_g6-138" value="" style="endArrow=none;html=1;rounded=0;exitX=0;exitY=0.5;exitDx=0;exitDy=0;entryX=0;entryY=0.5;entryDx=0;entryDy=0;" parent="1" source="gEZM68ZGpH-NV6sg8_g6-127" target="d7ThoQ3NYxS6xshXu1oU-1" edge="1">
          <mxGeometry relative="1" as="geometry">
            <mxPoint x="880" y="1060" as="sourcePoint" />
            <mxPoint x="820" y="910" as="targetPoint" />
            <Array as="points">
              <mxPoint x="660" y="1140" />
              <mxPoint x="660" y="910" />
            </Array>
          </mxGeometry>
        </mxCell>
        <mxCell id="gEZM68ZGpH-NV6sg8_g6-139" value="1" style="resizable=0;html=1;whiteSpace=wrap;align=right;verticalAlign=bottom;" parent="gEZM68ZGpH-NV6sg8_g6-138" connectable="0" vertex="1">
          <mxGeometry x="1" relative="1" as="geometry" />
        </mxCell>
        <mxCell id="gEZM68ZGpH-NV6sg8_g6-141" value="" style="endArrow=none;html=1;rounded=0;exitX=1;exitY=0.5;exitDx=0;exitDy=0;entryX=0;entryY=0.5;entryDx=0;entryDy=0;" parent="1" source="gEZM68ZGpH-NV6sg8_g6-55" target="gEZM68ZGpH-NV6sg8_g6-123" edge="1">
          <mxGeometry relative="1" as="geometry">
            <mxPoint x="950" y="640" as="sourcePoint" />
            <mxPoint x="1110" y="640" as="targetPoint" />
          </mxGeometry>
        </mxCell>
        <mxCell id="gEZM68ZGpH-NV6sg8_g6-142" value="N" style="resizable=0;html=1;whiteSpace=wrap;align=right;verticalAlign=bottom;" parent="gEZM68ZGpH-NV6sg8_g6-141" connectable="0" vertex="1">
          <mxGeometry x="1" relative="1" as="geometry" />
        </mxCell>
        <mxCell id="gEZM68ZGpH-NV6sg8_g6-144" value="" style="endArrow=none;html=1;rounded=0;exitX=1;exitY=0.5;exitDx=0;exitDy=0;entryX=0;entryY=0.5;entryDx=0;entryDy=0;" parent="1" source="gEZM68ZGpH-NV6sg8_g6-123" target="d7ThoQ3NYxS6xshXu1oU-4" edge="1">
          <mxGeometry relative="1" as="geometry">
            <mxPoint x="1190" y="550" as="sourcePoint" />
            <mxPoint x="1350" y="550" as="targetPoint" />
          </mxGeometry>
        </mxCell>
        <mxCell id="gEZM68ZGpH-NV6sg8_g6-145" value="1" style="resizable=0;html=1;whiteSpace=wrap;align=right;verticalAlign=bottom;" parent="gEZM68ZGpH-NV6sg8_g6-144" connectable="0" vertex="1">
          <mxGeometry x="1" relative="1" as="geometry" />
        </mxCell>
        <mxCell id="gEZM68ZGpH-NV6sg8_g6-148" value="" style="endArrow=none;html=1;rounded=0;exitX=1;exitY=0.5;exitDx=0;exitDy=0;entryX=0;entryY=0.5;entryDx=0;entryDy=0;" parent="1" source="gEZM68ZGpH-NV6sg8_g6-125" target="d7ThoQ3NYxS6xshXu1oU-118" edge="1">
          <mxGeometry relative="1" as="geometry">
            <mxPoint x="1780" y="610" as="sourcePoint" />
            <mxPoint x="1940" y="610" as="targetPoint" />
          </mxGeometry>
        </mxCell>
        <mxCell id="gEZM68ZGpH-NV6sg8_g6-149" value="N" style="resizable=0;html=1;whiteSpace=wrap;align=right;verticalAlign=bottom;" parent="gEZM68ZGpH-NV6sg8_g6-148" connectable="0" vertex="1">
          <mxGeometry x="1" relative="1" as="geometry" />
        </mxCell>
        <mxCell id="gEZM68ZGpH-NV6sg8_g6-151" value="" style="endArrow=none;html=1;rounded=0;exitX=0.5;exitY=1;exitDx=0;exitDy=0;entryX=0.5;entryY=0;entryDx=0;entryDy=0;" parent="1" source="gEZM68ZGpH-NV6sg8_g6-126" target="gEZM68ZGpH-NV6sg8_g6-42" edge="1">
          <mxGeometry relative="1" as="geometry">
            <mxPoint x="1760" y="780" as="sourcePoint" />
            <mxPoint x="1920" y="780" as="targetPoint" />
          </mxGeometry>
        </mxCell>
        <mxCell id="gEZM68ZGpH-NV6sg8_g6-152" value="1" style="resizable=0;html=1;whiteSpace=wrap;align=right;verticalAlign=bottom;" parent="gEZM68ZGpH-NV6sg8_g6-151" connectable="0" vertex="1">
          <mxGeometry x="1" relative="1" as="geometry" />
        </mxCell>
        <mxCell id="gEZM68ZGpH-NV6sg8_g6-153" value="" style="endArrow=none;html=1;rounded=0;entryX=0.5;entryY=1;entryDx=0;entryDy=0;exitX=0.5;exitY=0;exitDx=0;exitDy=0;" parent="1" source="gEZM68ZGpH-NV6sg8_g6-126" target="d7ThoQ3NYxS6xshXu1oU-118" edge="1">
          <mxGeometry relative="1" as="geometry">
            <mxPoint x="1770" y="650" as="sourcePoint" />
            <mxPoint x="1930" y="650" as="targetPoint" />
          </mxGeometry>
        </mxCell>
        <mxCell id="gEZM68ZGpH-NV6sg8_g6-154" value="N" style="resizable=0;html=1;whiteSpace=wrap;align=right;verticalAlign=bottom;" parent="gEZM68ZGpH-NV6sg8_g6-153" connectable="0" vertex="1">
          <mxGeometry x="1" relative="1" as="geometry">
            <mxPoint y="15" as="offset" />
          </mxGeometry>
        </mxCell>
        <mxCell id="gEZM68ZGpH-NV6sg8_g6-157" value="" style="endArrow=none;html=1;rounded=0;entryX=0.5;entryY=1;entryDx=0;entryDy=0;exitX=0.5;exitY=0;exitDx=0;exitDy=0;" parent="1" source="gEZM68ZGpH-NV6sg8_g6-124" target="d7ThoQ3NYxS6xshXu1oU-4" edge="1">
          <mxGeometry relative="1" as="geometry">
            <mxPoint x="1360" y="950" as="sourcePoint" />
            <mxPoint x="1360" y="850" as="targetPoint" />
          </mxGeometry>
        </mxCell>
        <mxCell id="gEZM68ZGpH-NV6sg8_g6-158" value="N" style="resizable=0;html=1;whiteSpace=wrap;align=right;verticalAlign=bottom;" parent="gEZM68ZGpH-NV6sg8_g6-157" connectable="0" vertex="1">
          <mxGeometry x="1" relative="1" as="geometry">
            <mxPoint y="20" as="offset" />
          </mxGeometry>
        </mxCell>
        <mxCell id="gEZM68ZGpH-NV6sg8_g6-159" value="Have" style="rhombus;whiteSpace=wrap;html=1;" parent="1" vertex="1">
          <mxGeometry x="2210" y="515" width="160" height="70" as="geometry" />
        </mxCell>
        <mxCell id="gEZM68ZGpH-NV6sg8_g6-160" value="" style="endArrow=none;html=1;rounded=0;entryX=1;entryY=0.5;entryDx=0;entryDy=0;exitX=0;exitY=0.5;exitDx=0;exitDy=0;" parent="1" source="gEZM68ZGpH-NV6sg8_g6-159" target="d7ThoQ3NYxS6xshXu1oU-118" edge="1">
          <mxGeometry relative="1" as="geometry">
            <mxPoint x="2210" y="550" as="sourcePoint" />
            <mxPoint x="2050" y="550" as="targetPoint" />
          </mxGeometry>
        </mxCell>
        <mxCell id="gEZM68ZGpH-NV6sg8_g6-161" value="N" style="resizable=0;html=1;whiteSpace=wrap;align=right;verticalAlign=bottom;" parent="gEZM68ZGpH-NV6sg8_g6-160" connectable="0" vertex="1">
          <mxGeometry x="1" relative="1" as="geometry">
            <mxPoint x="20" as="offset" />
          </mxGeometry>
        </mxCell>
        <mxCell id="gEZM68ZGpH-NV6sg8_g6-162" value="" style="endArrow=none;html=1;rounded=0;exitX=1;exitY=0.5;exitDx=0;exitDy=0;entryX=0;entryY=0.5;entryDx=0;entryDy=0;" parent="1" source="gEZM68ZGpH-NV6sg8_g6-159" target="d7ThoQ3NYxS6xshXu1oU-73" edge="1">
          <mxGeometry relative="1" as="geometry">
            <mxPoint x="2370" y="550" as="sourcePoint" />
            <mxPoint x="2530" y="550" as="targetPoint" />
          </mxGeometry>
        </mxCell>
        <mxCell id="gEZM68ZGpH-NV6sg8_g6-163" value="N" style="resizable=0;html=1;whiteSpace=wrap;align=right;verticalAlign=bottom;" parent="gEZM68ZGpH-NV6sg8_g6-162" connectable="0" vertex="1">
          <mxGeometry x="1" relative="1" as="geometry" />
        </mxCell>
        <mxCell id="gEZM68ZGpH-NV6sg8_g6-164" value="Have" style="rhombus;whiteSpace=wrap;html=1;" parent="1" vertex="1">
          <mxGeometry x="1620" y="1105" width="160" height="70" as="geometry" />
        </mxCell>
        <mxCell id="gEZM68ZGpH-NV6sg8_g6-165" value="" style="endArrow=none;html=1;rounded=0;entryX=1;entryY=0.5;entryDx=0;entryDy=0;exitX=0;exitY=0.5;exitDx=0;exitDy=0;" parent="1" source="gEZM68ZGpH-NV6sg8_g6-164" target="d7ThoQ3NYxS6xshXu1oU-3" edge="1">
          <mxGeometry relative="1" as="geometry">
            <mxPoint x="870" y="1540" as="sourcePoint" />
            <mxPoint x="710" y="1540" as="targetPoint" />
          </mxGeometry>
        </mxCell>
        <mxCell id="gEZM68ZGpH-NV6sg8_g6-166" value="N" style="resizable=0;html=1;whiteSpace=wrap;align=right;verticalAlign=bottom;" parent="gEZM68ZGpH-NV6sg8_g6-165" connectable="0" vertex="1">
          <mxGeometry x="1" relative="1" as="geometry">
            <mxPoint x="10" as="offset" />
          </mxGeometry>
        </mxCell>
        <mxCell id="gEZM68ZGpH-NV6sg8_g6-167" value="" style="endArrow=none;html=1;rounded=0;entryX=0;entryY=0.5;entryDx=0;entryDy=0;exitX=1;exitY=0.5;exitDx=0;exitDy=0;" parent="1" source="gEZM68ZGpH-NV6sg8_g6-164" target="d7ThoQ3NYxS6xshXu1oU-95" edge="1">
          <mxGeometry relative="1" as="geometry">
            <mxPoint x="1080" y="1700" as="sourcePoint" />
            <mxPoint x="1240" y="1700" as="targetPoint" />
          </mxGeometry>
        </mxCell>
        <mxCell id="gEZM68ZGpH-NV6sg8_g6-168" value="1" style="resizable=0;html=1;whiteSpace=wrap;align=right;verticalAlign=bottom;" parent="gEZM68ZGpH-NV6sg8_g6-167" connectable="0" vertex="1">
          <mxGeometry x="1" relative="1" as="geometry" />
        </mxCell>
        <mxCell id="gEZM68ZGpH-NV6sg8_g6-171" value="Have" style="rhombus;whiteSpace=wrap;html=1;" parent="1" vertex="1">
          <mxGeometry x="1450" y="1465" width="160" height="70" as="geometry" />
        </mxCell>
        <mxCell id="gEZM68ZGpH-NV6sg8_g6-172" value="Have" style="rhombus;whiteSpace=wrap;html=1;" parent="1" vertex="1">
          <mxGeometry x="900" y="1465" width="160" height="70" as="geometry" />
        </mxCell>
        <mxCell id="gEZM68ZGpH-NV6sg8_g6-173" value="Have" style="rhombus;whiteSpace=wrap;html=1;" parent="1" vertex="1">
          <mxGeometry x="1280" y="1570" width="160" height="70" as="geometry" />
        </mxCell>
        <mxCell id="gEZM68ZGpH-NV6sg8_g6-174" value="" style="endArrow=none;html=1;rounded=0;entryX=0.5;entryY=1;entryDx=0;entryDy=0;exitX=0.5;exitY=0;exitDx=0;exitDy=0;" parent="1" source="gEZM68ZGpH-NV6sg8_g6-173" target="gEZM68ZGpH-NV6sg8_g6-112" edge="1">
          <mxGeometry relative="1" as="geometry">
            <mxPoint x="750" y="1680" as="sourcePoint" />
            <mxPoint x="910" y="1680" as="targetPoint" />
          </mxGeometry>
        </mxCell>
        <mxCell id="gEZM68ZGpH-NV6sg8_g6-175" value="N" style="resizable=0;html=1;whiteSpace=wrap;align=right;verticalAlign=bottom;" parent="gEZM68ZGpH-NV6sg8_g6-174" connectable="0" vertex="1">
          <mxGeometry x="1" relative="1" as="geometry">
            <mxPoint y="20" as="offset" />
          </mxGeometry>
        </mxCell>
        <mxCell id="gEZM68ZGpH-NV6sg8_g6-176" value="" style="endArrow=none;html=1;rounded=0;entryX=0.5;entryY=0;entryDx=0;entryDy=0;exitX=0.5;exitY=1;exitDx=0;exitDy=0;" parent="1" source="gEZM68ZGpH-NV6sg8_g6-173" target="gEZM68ZGpH-NV6sg8_g6-101" edge="1">
          <mxGeometry relative="1" as="geometry">
            <mxPoint x="1390" y="1800" as="sourcePoint" />
            <mxPoint x="1550" y="1800" as="targetPoint" />
          </mxGeometry>
        </mxCell>
        <mxCell id="gEZM68ZGpH-NV6sg8_g6-177" value="1" style="resizable=0;html=1;whiteSpace=wrap;align=right;verticalAlign=bottom;" parent="gEZM68ZGpH-NV6sg8_g6-176" connectable="0" vertex="1">
          <mxGeometry x="1" relative="1" as="geometry" />
        </mxCell>
        <mxCell id="gEZM68ZGpH-NV6sg8_g6-178" value="" style="endArrow=none;html=1;rounded=0;exitX=0;exitY=0.5;exitDx=0;exitDy=0;entryX=1;entryY=0.5;entryDx=0;entryDy=0;" parent="1" source="gEZM68ZGpH-NV6sg8_g6-172" target="gEZM68ZGpH-NV6sg8_g6-79" edge="1">
          <mxGeometry relative="1" as="geometry">
            <mxPoint x="1000" y="1710" as="sourcePoint" />
            <mxPoint x="710" y="1500" as="targetPoint" />
          </mxGeometry>
        </mxCell>
        <mxCell id="gEZM68ZGpH-NV6sg8_g6-179" value="1" style="resizable=0;html=1;whiteSpace=wrap;align=right;verticalAlign=bottom;" parent="gEZM68ZGpH-NV6sg8_g6-178" connectable="0" vertex="1">
          <mxGeometry x="1" relative="1" as="geometry">
            <mxPoint x="10" as="offset" />
          </mxGeometry>
        </mxCell>
        <mxCell id="gEZM68ZGpH-NV6sg8_g6-180" value="" style="endArrow=none;html=1;rounded=0;entryX=0;entryY=0.5;entryDx=0;entryDy=0;exitX=1;exitY=0.5;exitDx=0;exitDy=0;" parent="1" source="gEZM68ZGpH-NV6sg8_g6-172" target="gEZM68ZGpH-NV6sg8_g6-112" edge="1">
          <mxGeometry relative="1" as="geometry">
            <mxPoint x="600" y="1760" as="sourcePoint" />
            <mxPoint x="760" y="1760" as="targetPoint" />
          </mxGeometry>
        </mxCell>
        <mxCell id="gEZM68ZGpH-NV6sg8_g6-181" value="N" style="resizable=0;html=1;whiteSpace=wrap;align=right;verticalAlign=bottom;" parent="gEZM68ZGpH-NV6sg8_g6-180" connectable="0" vertex="1">
          <mxGeometry x="1" relative="1" as="geometry" />
        </mxCell>
        <mxCell id="gEZM68ZGpH-NV6sg8_g6-183" value="" style="endArrow=none;html=1;rounded=0;exitX=0;exitY=0;exitDx=0;exitDy=0;" parent="1" source="gEZM68ZGpH-NV6sg8_g6-79" target="gEZM68ZGpH-NV6sg8_g6-81" edge="1">
          <mxGeometry width="50" height="50" relative="1" as="geometry">
            <mxPoint x="660" y="1470" as="sourcePoint" />
            <mxPoint x="440" y="1420" as="targetPoint" />
          </mxGeometry>
        </mxCell>
        <mxCell id="gEZM68ZGpH-NV6sg8_g6-81" value="ID" style="ellipse;whiteSpace=wrap;html=1;" parent="1" vertex="1">
          <mxGeometry x="450" y="1400" width="80" height="40" as="geometry" />
        </mxCell>
        <mxCell id="gEZM68ZGpH-NV6sg8_g6-83" value="Product ID" style="ellipse;whiteSpace=wrap;html=1;" parent="1" vertex="1">
          <mxGeometry x="440" y="1520" width="80" height="40" as="geometry" />
        </mxCell>
        <mxCell id="gEZM68ZGpH-NV6sg8_g6-85" value="Type" style="ellipse;whiteSpace=wrap;html=1;" parent="1" vertex="1">
          <mxGeometry x="440" y="1460" width="80" height="40" as="geometry" />
        </mxCell>
        <mxCell id="gEZM68ZGpH-NV6sg8_g6-187" value="" style="endArrow=none;html=1;rounded=0;entryX=1;entryY=0.5;entryDx=0;entryDy=0;exitX=0;exitY=0.5;exitDx=0;exitDy=0;" parent="1" source="gEZM68ZGpH-NV6sg8_g6-171" target="gEZM68ZGpH-NV6sg8_g6-112" edge="1">
          <mxGeometry relative="1" as="geometry">
            <mxPoint x="1570" y="1680" as="sourcePoint" />
            <mxPoint x="1730" y="1680" as="targetPoint" />
          </mxGeometry>
        </mxCell>
        <mxCell id="gEZM68ZGpH-NV6sg8_g6-188" value="N" style="resizable=0;html=1;whiteSpace=wrap;align=right;verticalAlign=bottom;" parent="gEZM68ZGpH-NV6sg8_g6-187" connectable="0" vertex="1">
          <mxGeometry x="1" relative="1" as="geometry">
            <mxPoint x="10" as="offset" />
          </mxGeometry>
        </mxCell>
        <mxCell id="gEZM68ZGpH-NV6sg8_g6-189" value="" style="endArrow=none;html=1;rounded=0;entryX=0;entryY=0.5;entryDx=0;entryDy=0;exitX=1;exitY=0.5;exitDx=0;exitDy=0;" parent="1" source="gEZM68ZGpH-NV6sg8_g6-171" target="gEZM68ZGpH-NV6sg8_g6-68" edge="1">
          <mxGeometry relative="1" as="geometry">
            <mxPoint x="1560" y="1630" as="sourcePoint" />
            <mxPoint x="1720" y="1630" as="targetPoint" />
          </mxGeometry>
        </mxCell>
        <mxCell id="gEZM68ZGpH-NV6sg8_g6-190" value="1" style="resizable=0;html=1;whiteSpace=wrap;align=right;verticalAlign=bottom;" parent="gEZM68ZGpH-NV6sg8_g6-189" connectable="0" vertex="1">
          <mxGeometry x="1" relative="1" as="geometry" />
        </mxCell>
        <mxCell id="gEZM68ZGpH-NV6sg8_g6-191" value="" style="endArrow=none;html=1;rounded=0;entryX=0.5;entryY=0;entryDx=0;entryDy=0;exitX=0.5;exitY=1;exitDx=0;exitDy=0;" parent="1" source="gEZM68ZGpH-NV6sg8_g6-124" target="d7ThoQ3NYxS6xshXu1oU-3" edge="1">
          <mxGeometry relative="1" as="geometry">
            <mxPoint x="920" y="1300" as="sourcePoint" />
            <mxPoint x="1080" y="1300" as="targetPoint" />
          </mxGeometry>
        </mxCell>
        <mxCell id="gEZM68ZGpH-NV6sg8_g6-192" value="N" style="resizable=0;html=1;whiteSpace=wrap;align=right;verticalAlign=bottom;" parent="gEZM68ZGpH-NV6sg8_g6-191" connectable="0" vertex="1">
          <mxGeometry x="1" relative="1" as="geometry" />
        </mxCell>
        <mxCell id="gEZM68ZGpH-NV6sg8_g6-193" value="Have" style="rhombus;whiteSpace=wrap;html=1;" parent="1" vertex="1">
          <mxGeometry x="2200" y="1105" width="160" height="70" as="geometry" />
        </mxCell>
        <mxCell id="gEZM68ZGpH-NV6sg8_g6-194" value="" style="endArrow=none;html=1;rounded=0;entryX=1;entryY=0.5;entryDx=0;entryDy=0;exitX=0;exitY=0.5;exitDx=0;exitDy=0;" parent="1" source="gEZM68ZGpH-NV6sg8_g6-193" target="d7ThoQ3NYxS6xshXu1oU-95" edge="1">
          <mxGeometry relative="1" as="geometry">
            <mxPoint x="2080" y="1250" as="sourcePoint" />
            <mxPoint x="2240" y="1250" as="targetPoint" />
          </mxGeometry>
        </mxCell>
        <mxCell id="gEZM68ZGpH-NV6sg8_g6-195" value="N" style="resizable=0;html=1;whiteSpace=wrap;align=right;verticalAlign=bottom;" parent="gEZM68ZGpH-NV6sg8_g6-194" connectable="0" vertex="1">
          <mxGeometry x="1" relative="1" as="geometry">
            <mxPoint x="21" as="offset" />
          </mxGeometry>
        </mxCell>
        <mxCell id="gEZM68ZGpH-NV6sg8_g6-196" value="" style="endArrow=none;html=1;rounded=0;exitX=1;exitY=0.5;exitDx=0;exitDy=0;entryX=0;entryY=0.5;entryDx=0;entryDy=0;" parent="1" source="gEZM68ZGpH-NV6sg8_g6-193" target="d7ThoQ3NYxS6xshXu1oU-106" edge="1">
          <mxGeometry relative="1" as="geometry">
            <mxPoint x="2390" y="1170" as="sourcePoint" />
            <mxPoint x="2550" y="1170" as="targetPoint" />
          </mxGeometry>
        </mxCell>
        <mxCell id="gEZM68ZGpH-NV6sg8_g6-197" value="N" style="resizable=0;html=1;whiteSpace=wrap;align=right;verticalAlign=bottom;" parent="gEZM68ZGpH-NV6sg8_g6-196" connectable="0" vertex="1">
          <mxGeometry x="1" relative="1" as="geometry" />
        </mxCell>
        <mxCell id="gEZM68ZGpH-NV6sg8_g6-199" value="Have" style="rhombus;whiteSpace=wrap;html=1;" parent="1" vertex="1">
          <mxGeometry x="1280" y="1260" width="160" height="70" as="geometry" />
        </mxCell>
        <mxCell id="gEZM68ZGpH-NV6sg8_g6-201" value="" style="endArrow=none;html=1;rounded=0;entryX=0.5;entryY=0;entryDx=0;entryDy=0;exitX=0.5;exitY=1;exitDx=0;exitDy=0;" parent="1" source="gEZM68ZGpH-NV6sg8_g6-199" target="gEZM68ZGpH-NV6sg8_g6-112" edge="1">
          <mxGeometry relative="1" as="geometry">
            <mxPoint x="1140" y="1280" as="sourcePoint" />
            <mxPoint x="1300" y="1280" as="targetPoint" />
          </mxGeometry>
        </mxCell>
        <mxCell id="gEZM68ZGpH-NV6sg8_g6-202" value="N" style="resizable=0;html=1;whiteSpace=wrap;align=right;verticalAlign=bottom;" parent="gEZM68ZGpH-NV6sg8_g6-201" connectable="0" vertex="1">
          <mxGeometry x="1" relative="1" as="geometry" />
        </mxCell>
        <mxCell id="gEZM68ZGpH-NV6sg8_g6-203" value="" style="endArrow=none;html=1;rounded=0;entryX=0.5;entryY=1;entryDx=0;entryDy=0;exitX=0.5;exitY=0;exitDx=0;exitDy=0;" parent="1" source="gEZM68ZGpH-NV6sg8_g6-199" target="d7ThoQ3NYxS6xshXu1oU-3" edge="1">
          <mxGeometry relative="1" as="geometry">
            <mxPoint x="1170" y="1230" as="sourcePoint" />
            <mxPoint x="1330" y="1230" as="targetPoint" />
          </mxGeometry>
        </mxCell>
        <mxCell id="gEZM68ZGpH-NV6sg8_g6-204" value="N" style="resizable=0;html=1;whiteSpace=wrap;align=right;verticalAlign=bottom;" parent="gEZM68ZGpH-NV6sg8_g6-203" connectable="0" vertex="1">
          <mxGeometry x="1" relative="1" as="geometry">
            <mxPoint y="20" as="offset" />
          </mxGeometry>
        </mxCell>
        <mxCell id="Jeg7tN4uo16VwDeiWXdE-1" value="Payment" style="rounded=0;whiteSpace=wrap;html=1;" vertex="1" parent="1">
          <mxGeometry x="1300" y="210" width="120" height="60" as="geometry" />
        </mxCell>
        <mxCell id="Jeg7tN4uo16VwDeiWXdE-2" value="" style="endArrow=none;html=1;rounded=0;exitX=0;exitY=0;exitDx=0;exitDy=0;entryX=1;entryY=1;entryDx=0;entryDy=0;" edge="1" parent="1" source="Jeg7tN4uo16VwDeiWXdE-1" target="Jeg7tN4uo16VwDeiWXdE-3">
          <mxGeometry width="50" height="50" relative="1" as="geometry">
            <mxPoint x="1100" y="30" as="sourcePoint" />
            <mxPoint x="1230" y="90" as="targetPoint" />
          </mxGeometry>
        </mxCell>
        <mxCell id="Jeg7tN4uo16VwDeiWXdE-3" value="ID" style="ellipse;whiteSpace=wrap;html=1;" vertex="1" parent="1">
          <mxGeometry x="1140" y="130" width="80" height="40" as="geometry" />
        </mxCell>
        <mxCell id="Jeg7tN4uo16VwDeiWXdE-4" value="" style="endArrow=none;html=1;rounded=0;exitX=0.25;exitY=0;exitDx=0;exitDy=0;entryX=0.5;entryY=1;entryDx=0;entryDy=0;" edge="1" parent="1" source="Jeg7tN4uo16VwDeiWXdE-1" target="Jeg7tN4uo16VwDeiWXdE-5">
          <mxGeometry width="50" height="50" relative="1" as="geometry">
            <mxPoint x="1340" y="-10" as="sourcePoint" />
            <mxPoint x="1280" y="70" as="targetPoint" />
          </mxGeometry>
        </mxCell>
        <mxCell id="Jeg7tN4uo16VwDeiWXdE-5" value="Type" style="ellipse;whiteSpace=wrap;html=1;" vertex="1" parent="1">
          <mxGeometry x="1220" y="110" width="80" height="40" as="geometry" />
        </mxCell>
        <mxCell id="Jeg7tN4uo16VwDeiWXdE-6" value="Customer_ID" style="ellipse;whiteSpace=wrap;html=1;" vertex="1" parent="1">
          <mxGeometry x="1310" y="100" width="80" height="40" as="geometry" />
        </mxCell>
        <mxCell id="Jeg7tN4uo16VwDeiWXdE-7" value="" style="endArrow=none;html=1;rounded=0;exitX=0.5;exitY=0;exitDx=0;exitDy=0;entryX=0.5;entryY=1;entryDx=0;entryDy=0;" edge="1" parent="1" source="Jeg7tN4uo16VwDeiWXdE-1" target="Jeg7tN4uo16VwDeiWXdE-6">
          <mxGeometry width="50" height="50" relative="1" as="geometry">
            <mxPoint x="960" y="170" as="sourcePoint" />
            <mxPoint x="1010" y="120" as="targetPoint" />
          </mxGeometry>
        </mxCell>
        <mxCell id="Jeg7tN4uo16VwDeiWXdE-8" value="" style="endArrow=none;html=1;rounded=0;exitX=0.75;exitY=0;exitDx=0;exitDy=0;entryX=0;entryY=1;entryDx=0;entryDy=0;" edge="1" parent="1" source="Jeg7tN4uo16VwDeiWXdE-1" target="Jeg7tN4uo16VwDeiWXdE-9">
          <mxGeometry width="50" height="50" relative="1" as="geometry">
            <mxPoint x="1000" y="210" as="sourcePoint" />
            <mxPoint x="1430" y="90" as="targetPoint" />
          </mxGeometry>
        </mxCell>
        <mxCell id="Jeg7tN4uo16VwDeiWXdE-9" value="Staff_ID" style="ellipse;whiteSpace=wrap;html=1;" vertex="1" parent="1">
          <mxGeometry x="1410" y="100" width="80" height="40" as="geometry" />
        </mxCell>
        <mxCell id="Jeg7tN4uo16VwDeiWXdE-10" value="" style="endArrow=none;html=1;rounded=0;exitX=1;exitY=0;exitDx=0;exitDy=0;entryX=0;entryY=0.5;entryDx=0;entryDy=0;" edge="1" parent="1" source="Jeg7tN4uo16VwDeiWXdE-1" target="Jeg7tN4uo16VwDeiWXdE-11">
          <mxGeometry width="50" height="50" relative="1" as="geometry">
            <mxPoint x="890" y="220" as="sourcePoint" />
            <mxPoint x="1480" y="120" as="targetPoint" />
          </mxGeometry>
        </mxCell>
        <mxCell id="Jeg7tN4uo16VwDeiWXdE-11" value="Amount" style="ellipse;whiteSpace=wrap;html=1;" vertex="1" parent="1">
          <mxGeometry x="1480" y="150" width="80" height="40" as="geometry" />
        </mxCell>
        <mxCell id="Jeg7tN4uo16VwDeiWXdE-12" value="" style="endArrow=none;html=1;rounded=0;exitX=0.5;exitY=0;exitDx=0;exitDy=0;entryX=0.5;entryY=1;entryDx=0;entryDy=0;" edge="1" parent="1" source="d7ThoQ3NYxS6xshXu1oU-4" target="Jeg7tN4uo16VwDeiWXdE-13">
          <mxGeometry width="50" height="50" relative="1" as="geometry">
            <mxPoint x="1050" y="310" as="sourcePoint" />
            <mxPoint x="1100" y="260" as="targetPoint" />
          </mxGeometry>
        </mxCell>
        <mxCell id="Jeg7tN4uo16VwDeiWXdE-13" value="Have" style="rhombus;whiteSpace=wrap;html=1;" vertex="1" parent="1">
          <mxGeometry x="1280" y="340" width="160" height="60" as="geometry" />
        </mxCell>
        <mxCell id="Jeg7tN4uo16VwDeiWXdE-14" value="" style="endArrow=none;html=1;rounded=0;exitX=0.5;exitY=0;exitDx=0;exitDy=0;entryX=0.5;entryY=1;entryDx=0;entryDy=0;" edge="1" parent="1" source="Jeg7tN4uo16VwDeiWXdE-13" target="Jeg7tN4uo16VwDeiWXdE-1">
          <mxGeometry width="50" height="50" relative="1" as="geometry">
            <mxPoint x="1080" y="260" as="sourcePoint" />
            <mxPoint x="1130" y="210" as="targetPoint" />
          </mxGeometry>
        </mxCell>
      </root>
    </mxGraphModel>
  </diagram>
</mxfile>
